<?xml version="1.0" standalone="no"?>
<!DOCTYPE svg PUBLIC "-//W3C//DTD SVG 20010904//EN"
 "http://www.w3.org/TR/2001/REC-SVG-20010904/DTD/svg10.dtd">
<svg version="1.0" xmlns="http://www.w3.org/2000/svg"
 width="1420.000000pt" height="1420.000000pt" viewBox="0 0 1420.000000 1420.000000"
 preserveAspectRatio="xMidYMid meet">
<metadata>
Created by potrace 1.14, written by Peter Selinger 2001-2017
</metadata>
<g transform="translate(0.000000,1420.000000) scale(0.100000,-0.100000)"
fill="#000000" stroke="none">
<path d="M239 9440 c-3 -1056 -1 -2612 5 -2617 3 -4 36 -7 72 -7 65 1 92 14
76 38 -9 15 -9 457 1 463 4 2 4 10 0 16 -12 19 -10 1427 2 1427 7 0 6 3 0 8
-7 4 -10 158 -10 440 0 239 -2 437 -5 440 -3 4 -35 7 -73 7 l-67 0 -1 -215z"/>
<path d="M573 9652 c-42 -3 -43 -4 -44 -40 0 -20 0 -190 -1 -377 -1 -230 -5
-345 -12 -354 -8 -11 -8 -13 0 -8 14 8 13 -51 0 -72 -6 -9 -5 -12 1 -8 13 8
12 -1332 -1 -1352 -6 -9 -5 -12 1 -8 13 8 12 -52 -1 -72 -6 -9 -5 -12 1 -8 13
8 12 -372 -1 -392 -6 -9 -5 -12 1 -8 13 8 12 -52 -1 -72 -6 -10 -5 -12 2 -7 7
4 11 -2 10 -16 -2 -40 1 -45 25 -42 12 1 45 3 72 3 l50 1 -1 63 c-1 36 3 65
10 69 7 5 7 8 0 8 -13 0 -13 378 0 399 6 9 5 12 -1 8 -14 -9 -13 216 1 225 7
5 8 8 0 8 -7 0 -10 67 -11 200 0 144 3 198 11 193 8 -5 8 -3 0 8 -16 19 -16
321 0 312 7 -5 7 -2 -1 8 -13 16 -12 137 1 158 6 9 5 12 -1 8 -6 -4 -10 36
-10 108 0 76 4 115 11 115 8 0 8 3 0 8 -14 9 -14 105 0 114 7 5 8 8 0 8 -6 0
-10 23 -11 55 0 37 3 52 11 48 8 -5 8 -3 0 8 -7 9 -11 127 -12 353 -1 186 -4
341 -7 344 -6 7 -37 8 -92 4z"/>
<path d="M819 9650 c-1 -3 -2 -639 -3 -1414 -2 -1142 0 -1409 11 -1413 18 -7
403 -9 414 -3 7 5 12 1512 8 2598 l-1 232 -61 1 c-34 0 -131 1 -214 2 -84 1
-154 0 -154 -3z"/>
<path d="M1400 9650 c-4 -3 -8 -91 -9 -195 0 -105 0 -251 -1 -326 -1 -75 0
-140 1 -145 1 -5 1 -13 0 -19 -5 -24 -1 -217 4 -225 3 -5 2 -11 -2 -13 -5 -3
-6 -58 -3 -122 3 -64 3 -118 1 -120 -6 -6 -2 -215 4 -225 3 -5 2 -11 -2 -13
-5 -3 -6 -58 -3 -122 3 -64 4 -118 2 -120 -5 -5 -2 -1179 3 -1184 3 -2 38 -5
79 -5 73 -1 73 -1 67 24 -9 35 -6 303 3 318 4 7 3 12 -3 12 -8 0 -8 20 -1 40
1 3 1 10 0 15 -8 30 -4 1803 3 1819 5 10 5 16 0 13 -4 -3 -8 129 -8 294 0 192
-4 299 -10 300 -62 3 -119 3 -125 -1z"/>
<path d="M2013 9652 c-42 -3 -43 -4 -43 -40 -1 -20 -2 -193 -2 -384 -1 -219
-5 -345 -11 -341 -6 4 -7 1 -1 -8 13 -19 12 -72 -1 -81 -6 -5 -6 -8 3 -8 6 0
12 -9 12 -20 0 -11 -6 -20 -12 -20 -9 0 -9 -3 -2 -8 14 -10 16 -105 2 -96 -7
5 -8 2 -2 -7 13 -19 12 -72 -1 -81 -6 -5 -6 -8 3 -8 6 0 12 -9 12 -20 0 -11
-6 -20 -12 -20 -9 0 -10 -3 -2 -8 16 -10 15 -704 0 -714 -8 -6 -8 -8 0 -8 6 0
11 -21 11 -50 1 -32 -3 -48 -10 -43 -6 4 -7 1 -1 -8 13 -19 12 -72 -1 -81 -6
-5 -6 -8 3 -8 6 0 12 -9 12 -20 0 -11 -6 -20 -12 -20 -9 0 -9 -3 -2 -8 14 -10
16 -105 2 -96 -7 5 -8 2 -2 -7 13 -19 12 -72 -1 -81 -6 -5 -6 -8 3 -8 6 0 12
-9 12 -20 0 -11 -6 -20 -12 -20 -9 0 -9 -3 -2 -8 14 -10 16 -105 2 -96 -7 5
-8 2 -2 -7 13 -19 12 -72 -1 -81 -6 -5 -6 -8 3 -8 6 0 12 -9 12 -20 0 -11 -6
-20 -12 -20 -9 0 -9 -3 -2 -8 14 -10 16 -105 2 -96 -7 5 -8 2 -2 -7 13 -19 12
-72 -1 -81 -6 -5 -6 -8 3 -8 6 0 12 -9 12 -19 0 -11 -6 -22 -12 -24 -16 -6 25
-9 109 -8 34 1 65 -3 68 -9 3 -5 12 -10 18 -10 8 0 8 3 -1 9 -8 5 42 8 117 7
l131 -1 1 35 c1 19 1 39 0 44 -1 4 4 15 11 24 7 9 8 13 2 9 -15 -9 -16 552 0
572 9 12 8 13 -2 7 -10 -6 -13 -1 -10 20 2 18 8 28 16 26 8 -1 11 2 7 8 -3 6
-11 8 -16 5 -5 -4 -9 12 -9 35 0 29 4 39 12 34 8 -5 8 -3 2 7 -14 21 -14 801
0 818 9 12 8 13 -2 7 -10 -6 -13 -1 -10 20 2 18 8 28 16 26 8 -1 11 2 7 8 -3
6 -11 8 -16 5 -5 -4 -9 12 -9 35 0 30 3 39 13 34 9 -6 9 -4 1 7 -7 9 -12 170
-13 504 -1 270 -3 503 -4 518 l-2 29 -170 1 c-93 1 -189 1 -212 -1z"/>
<path d="M2551 9640 c-4 -8 -7 -158 -6 -332 0 -175 -4 -318 -8 -318 -5 0 -5
-6 0 -12 12 -20 12 -69 0 -61 -6 4 -7 1 -2 -8 12 -18 14 -99 3 -99 -4 0 -3 -9
4 -20 11 -17 10 -22 -2 -30 -8 -5 -10 -10 -5 -10 6 0 10 -18 11 -40 0 -23 -3
-37 -9 -33 -6 4 -7 1 -2 -8 14 -21 15 -59 2 -59 -8 0 -8 -3 -2 -8 14 -10 17
-104 3 -96 -7 5 -8 2 -3 -6 12 -19 13 -202 2 -217 -5 -7 -6 -13 -1 -13 5 0 9
-18 10 -40 0 -23 -3 -37 -9 -33 -6 4 -7 1 -1 -8 10 -17 12 -339 2 -339 -5 0
-3 -9 4 -20 11 -17 10 -22 -2 -30 -8 -5 -10 -10 -5 -10 6 0 10 -18 11 -40 0
-23 -3 -37 -9 -33 -6 4 -7 1 -2 -8 14 -21 15 -59 2 -59 -8 0 -8 -3 -2 -8 14
-10 17 -104 3 -96 -7 5 -8 2 -3 -6 12 -19 13 -202 2 -217 -5 -7 -6 -13 -1 -13
5 0 9 -18 10 -40 0 -23 -3 -37 -9 -33 -6 4 -7 1 -2 -8 12 -18 14 -99 3 -99 -4
0 -3 -9 4 -20 11 -17 10 -22 -2 -30 -8 -5 -10 -10 -5 -10 6 0 10 -18 11 -40 0
-23 -3 -37 -9 -33 -6 4 -7 1 -2 -8 14 -21 15 -59 2 -59 -8 0 -8 -3 -2 -8 15
-11 18 -55 2 -46 -9 5 -9 4 0 -6 6 -7 9 -18 7 -25 -9 -22 14 -27 121 -29 57 0
107 -4 111 -8 4 -5 12 -8 18 -8 6 0 5 4 -3 9 -9 6 4 9 40 9 29 1 60 -4 68 -11
12 -9 13 -9 7 1 -5 9 3 12 32 12 36 0 40 3 44 30 3 16 1 35 -3 42 -4 6 -4 19
0 27 5 9 5 25 1 36 -4 11 -4 28 1 37 6 10 5 19 -1 23 -6 3 -7 14 -2 23 6 15 7
43 2 65 -1 4 -2 26 -2 50 0 29 4 41 13 39 10 -3 10 0 0 12 -7 8 -11 31 -10 50
2 19 1 38 -3 41 -3 4 -3 19 2 34 4 16 4 34 0 42 -5 7 -5 20 -1 28 5 9 5 25 1
36 -4 11 -4 32 1 48 4 15 5 27 1 27 -4 0 -6 19 -6 42 2 29 6 42 15 40 9 -2 10
0 2 10 -11 14 -17 63 -12 111 1 6 0 19 -2 27 -2 9 2 14 10 12 11 -2 12 0 3 10
-6 8 -10 43 -9 81 1 37 0 67 -3 67 -3 0 -4 19 -4 42 2 29 6 42 15 40 10 -3 10
0 0 12 -7 8 -12 30 -11 48 1 18 1 38 0 43 -1 6 -1 15 0 20 4 22 5 115 0 115
-3 0 -4 19 -4 42 2 29 6 42 15 40 10 -3 10 0 0 12 -7 8 -11 31 -10 50 2 19 0
38 -3 41 -4 4 -3 18 2 31 5 13 6 24 2 24 -4 0 -6 19 -6 42 2 29 6 42 15 40 9
-2 10 0 2 10 -11 14 -17 63 -12 111 1 6 0 19 -2 27 -2 9 2 14 10 12 12 -3 12
0 2 11 -6 8 -12 30 -11 48 0 49 0 71 0 94 -1 24 -1 26 1 96 1 31 -1 61 -5 67
-3 6 -2 13 3 17 7 4 7 15 1 30 -5 14 -6 25 -2 25 6 0 7 60 2 80 -1 3 -1 110
-1 238 -1 231 -1 232 -22 233 -271 6 -399 3 -406 -11z"/>
<path d="M3149 9652 l-26 -3 1 -212 c1 -117 -2 -222 -6 -235 -4 -13 -5 -21 0
-19 4 3 6 -56 4 -131 -3 -164 -3 -148 1 -197 1 -26 -3 -45 -13 -53 -8 -8 -9
-11 -2 -7 6 3 12 3 13 -2 0 -4 2 -18 3 -30 2 -13 -1 -23 -6 -23 -5 0 -4 -9 2
-20 6 -11 7 -20 2 -20 -5 0 -8 -10 -6 -22 1 -13 3 -23 4 -23 6 0 4 -88 -2 -92
-5 -2 -5 -10 -1 -16 10 -16 10 -39 0 -54 -4 -6 -3 -14 2 -17 7 -4 7 -15 1 -30
-5 -13 -6 -27 -2 -30 9 -9 8 -86 -1 -86 -4 0 -3 -8 2 -18 6 -10 6 -24 1 -32
-5 -8 -6 -19 -2 -24 9 -15 8 -86 -1 -86 -4 0 -3 -8 2 -18 6 -10 6 -24 1 -32
-5 -8 -6 -19 -2 -24 9 -15 8 -86 -1 -86 -4 0 -3 -8 2 -18 6 -10 6 -24 1 -32
-5 -8 -6 -19 -2 -24 9 -15 8 -86 -1 -86 -5 0 -5 -5 -2 -11 11 -17 13 -59 3
-59 -5 0 -4 -9 2 -20 6 -11 7 -20 2 -20 -5 0 -8 -10 -6 -22 1 -13 3 -23 4 -23
6 0 4 -88 -3 -92 -4 -3 -4 -10 0 -16 10 -15 10 -38 0 -54 -4 -6 -3 -14 2 -18
7 -3 7 -15 1 -29 -5 -13 -6 -27 -3 -30 13 -13 8 -81 -7 -94 -8 -8 -9 -11 -2
-7 6 3 13 0 13 -7 1 -7 2 -20 3 -28 1 -8 -2 -23 -7 -32 -4 -10 -4 -18 2 -18 5
0 6 -14 1 -35 -4 -19 -5 -35 -1 -35 8 0 6 -64 -3 -78 -3 -6 -2 -13 2 -16 10
-6 9 -36 -1 -53 -4 -6 -3 -14 2 -18 7 -3 7 -15 1 -29 -5 -13 -6 -27 -3 -30 13
-13 8 -81 -7 -94 -8 -8 -9 -11 -2 -7 12 6 16 -5 13 -37 -2 -14 6 -18 36 -19
83 -3 123 2 116 14 -8 13 -9 147 -1 160 4 6 4 15 1 20 -9 15 -9 155 1 150 5
-4 6 0 1 7 -10 15 -13 448 -3 463 4 6 4 15 1 20 -8 14 -7 292 1 306 4 6 4 11
-1 11 -9 0 -9 280 0 304 4 9 3 16 -1 16 -6 0 -8 439 -2 465 1 6 2 12 1 15 -8
22 -4 240 4 240 7 0 7 3 0 8 -6 4 -10 122 -9 320 l0 312 -25 1 c-14 0 -35 1
-46 2 -11 1 -32 1 -46 -1z"/>
<path d="M3427 9652 c-18 -4 -20 -104 -18 -890 1 -183 -2 -232 -12 -226 -9 5
-9 4 1 -7 6 -7 12 -31 12 -54 0 -23 -6 -47 -12 -54 -10 -11 -10 -12 -1 -7 17
10 17 -212 0 -233 -9 -12 -9 -13 1 -7 9 5 12 -2 12 -26 0 -19 -6 -40 -12 -47
-10 -11 -10 -12 -1 -7 17 10 17 -212 0 -233 -9 -11 -9 -13 0 -8 16 10 17 -451
0 -472 -9 -11 -9 -13 0 -8 9 6 12 -59 11 -268 0 -152 2 -278 5 -281 6 -6 394
-12 417 -7 12 3 15 26 15 129 0 69 3 128 7 130 5 3 5 11 1 17 -11 18 -11 50 1
66 8 10 8 13 1 9 -13 -8 -14 210 -2 229 4 6 3 14 -1 17 -11 7 -9 46 2 65 6 9
5 12 0 8 -11 -7 -13 212 -2 229 4 6 4 14 0 18 -11 11 -9 1185 2 1179 5 -4 6
-1 0 8 -5 8 -9 173 -10 366 0 194 -3 355 -6 359 -7 6 -381 12 -411 6z"/>
<path d="M4028 9652 c-21 -2 -38 -6 -39 -10 -1 -4 -2 -122 -3 -262 -1 -140 -4
-259 -5 -265 -2 -5 -2 -12 -1 -15 8 -16 4 -188 -4 -183 -5 4 -6 1 0 -8 11 -17
12 -279 1 -279 -5 0 -5 -6 0 -12 11 -19 11 -188 -1 -181 -5 4 -6 1 0 -8 11
-17 12 -279 1 -279 -5 0 -5 -6 0 -12 11 -19 11 -188 -1 -181 -5 4 -6 1 0 -8
11 -17 12 -359 1 -359 -5 0 -5 -6 0 -12 10 -17 10 -308 0 -308 -5 0 -5 -6 0
-12 10 -18 10 -308 -1 -308 -5 0 -4 -6 1 -12 10 -14 11 -84 1 -94 -4 -3 -5
-11 -2 -17 4 -11 140 -14 150 -4 5 5 7 2818 2 2822 -6 6 -65 10 -100 7z"/>
<path d="M4589 9652 l-26 -3 1 -235 c0 -128 -2 -234 -5 -234 -4 0 -4 -15 0
-32 8 -43 7 -90 -2 -105 -5 -7 -5 -13 0 -13 4 0 8 -11 8 -25 0 -14 -3 -25 -6
-25 -3 0 -6 -7 -6 -15 0 -8 4 -15 9 -15 5 0 4 -9 -2 -19 -5 -11 -7 -22 -2 -25
13 -8 6 -61 -8 -58 -11 3 -11 0 0 -13 13 -16 21 -95 9 -95 -3 0 -6 -7 -6 -15
0 -8 4 -15 8 -15 5 0 4 -12 -2 -27 -5 -14 -6 -29 -2 -32 9 -7 10 -88 0 -97 -3
-3 -2 -16 3 -29 5 -14 5 -26 -2 -33 -6 -6 -6 -12 0 -16 6 -3 7 -20 2 -41 -4
-19 -5 -35 -1 -35 8 0 5 -124 -3 -146 -3 -8 -2 -14 2 -14 9 0 7 -123 -2 -146
-3 -8 -2 -14 2 -14 9 0 7 -123 -2 -146 -3 -8 -2 -14 2 -14 4 0 7 -40 7 -90 0
-49 -3 -90 -6 -90 -4 0 -3 -15 1 -34 5 -22 3 -39 -3 -45 -8 -8 -8 -11 0 -11
10 0 10 -47 -1 -57 -2 -3 -1 -16 4 -29 6 -14 6 -26 -1 -29 -5 -4 -6 -11 -3
-17 10 -16 10 -108 0 -111 -6 -2 -6 -9 -1 -17 10 -16 13 -90 4 -90 -3 0 -6 -7
-6 -15 0 -8 4 -15 8 -15 5 0 4 -12 -2 -27 -5 -14 -6 -29 -2 -32 9 -7 10 -88 0
-97 -3 -3 -2 -17 3 -30 6 -14 6 -26 -1 -29 -5 -4 -6 -11 -3 -17 10 -16 10
-108 0 -111 -6 -2 -6 -9 -1 -18 5 -8 9 -31 8 -51 -2 -27 2 -38 12 -39 8 0 41
-1 73 -2 l59 -2 -1 338 c-1 218 3 337 9 337 7 0 7 3 0 8 -13 9 -14 145 0 154
6 5 6 8 0 8 -9 0 -13 501 -5 535 1 6 2 12 0 15 -7 20 -3 240 5 240 7 0 7 3 0
8 -13 9 -14 145 0 154 6 5 6 8 0 8 -7 0 -10 178 -9 514 l0 514 -45 4 c-26 2
-58 2 -72 0z"/>
<path d="M4898 9652 l-46 -3 -1 -684 c0 -376 -1 -687 -2 -692 -1 -4 -1 -12 0
-18 3 -11 2 -210 0 -222 -1 -4 -1 -12 0 -18 2 -12 2 -691 0 -702 -1 -4 -1 -12
0 -18 3 -11 2 -210 0 -222 -1 -4 -1 -12 0 -18 1 -5 3 -62 4 -125 l2 -115 74 3
c56 3 71 1 65 -9 -4 -8 -3 -10 5 -5 6 4 8 12 4 18 -11 18 -9 178 2 178 7 0 7
3 0 8 -14 10 -15 42 -2 42 8 0 7 4 -1 12 -8 8 -8 17 -1 31 6 11 7 17 2 14 -12
-7 -10 366 2 375 7 5 6 8 0 8 -6 0 -11 9 -11 20 0 11 5 20 10 20 6 0 5 5 -2
12 -8 8 -8 17 -1 31 6 11 7 17 2 14 -12 -7 -10 366 2 375 7 5 6 8 0 8 -6 0
-11 9 -11 20 0 11 5 20 10 20 6 0 5 5 -2 12 -8 8 -8 17 -1 31 6 11 7 17 2 14
-12 -7 -10 366 2 375 7 5 6 8 0 8 -6 0 -11 9 -11 20 0 11 5 20 10 20 6 0 5 5
-2 12 -8 8 -8 17 -1 31 6 11 7 17 2 14 -4 -3 -8 244 -8 548 l1 553 -26 4 c-14
1 -46 2 -72 0z"/>
<path d="M5163 9652 l-23 -3 0 -257 c-3 -1304 0 -2565 4 -2569 8 -8 86 -10
116 -3 l25 6 1 165 c1 90 3 166 4 169 1 3 1 10 0 15 -6 27 -4 218 3 222 4 2 4
9 1 15 -10 16 -12 98 -2 104 4 3 5 10 2 16 -10 16 -12 98 -2 104 4 3 5 10 1
17 -9 15 -10 458 0 464 4 2 4 9 1 15 -10 15 -11 219 -1 225 4 2 4 9 1 15 -10
16 -12 98 -2 104 4 3 5 10 2 16 -10 16 -12 98 -2 104 4 3 5 10 2 16 -10 16
-11 259 -2 265 5 2 5 12 0 21 -10 22 -9 73 2 91 6 8 5 12 0 8 -6 -3 -9 126 -9
321 l0 327 -50 5 c-27 3 -60 4 -72 2z"/>
<path d="M5468 9652 l-38 -3 0 -47 c0 -26 -1 -240 -2 -477 0 -300 -4 -434 -12
-444 -8 -11 -8 -13 0 -8 8 5 12 -40 12 -163 0 -125 -3 -168 -12 -163 -8 5 -8
3 1 -8 15 -19 15 -119 0 -138 -8 -10 -8 -13 -1 -8 17 10 17 -452 1 -472 -9
-11 -9 -13 -1 -8 8 5 12 -40 12 -163 0 -125 -3 -168 -12 -163 -8 5 -8 3 1 -8
15 -19 15 -119 0 -138 -9 -11 -9 -13 0 -8 8 5 11 -37 12 -165 0 -281 -3 -256
27 -250 17 3 33 -3 52 -19 25 -22 26 -23 8 -1 l-19 22 56 0 c33 0 57 -5 59
-12 2 -6 12 -12 21 -14 9 -1 15 2 11 7 -3 5 -10 7 -15 4 -5 -4 -9 -2 -9 3 0 5
25 10 55 10 41 0 55 -4 58 -17 4 -13 5 -13 6 2 1 16 8 18 51 15 27 -3 55 -1
61 3 9 5 12 343 12 1414 -1 773 -3 1409 -6 1411 -6 6 -333 11 -389 6z"/>
<path d="M6035 9652 l-30 -3 0 -334 c0 -217 -4 -335 -10 -335 -6 0 -6 -3 0 -8
12 -8 14 -71 3 -88 -4 -6 -4 -14 -1 -18 10 -10 11 -86 1 -92 -5 -3 -5 -11 -1
-17 12 -20 12 -37 0 -37 -8 0 -8 -3 -2 -8 14 -9 14 -82 1 -82 -7 0 -8 -3 -1
-8 13 -9 13 -75 0 -84 -7 -5 -7 -8 0 -8 14 0 14 -142 0 -152 -7 -5 -6 -8 0 -8
12 0 14 -108 3 -126 -4 -6 -4 -14 -1 -18 10 -10 11 -86 1 -92 -5 -3 -5 -11 -1
-17 12 -20 12 -37 0 -37 -8 0 -8 -3 -2 -8 14 -9 14 -82 1 -82 -7 0 -8 -3 -1
-8 13 -9 13 -75 0 -84 -7 -5 -7 -8 0 -8 14 0 14 -93 1 -102 -8 -5 -8 -8 0 -8
12 0 13 -38 1 -57 -5 -7 -4 -13 0 -13 13 0 10 -103 -2 -112 -7 -5 -6 -8 1 -8
13 0 13 -80 -1 -80 -5 0 -4 -4 3 -9 17 -11 17 -21 0 -32 -7 -5 -8 -9 -2 -9 12
0 13 -38 1 -57 -5 -7 -4 -13 0 -13 13 0 10 -103 -2 -112 -7 -5 -6 -8 1 -8 14
0 13 -72 -1 -82 -6 -5 -5 -8 4 -8 10 0 11 -3 2 -13 -6 -8 -8 -17 -4 -21 11
-11 9 -146 -2 -146 -7 0 -7 -3 0 -8 12 -8 15 -163 3 -156 -4 3 -5 -1 -3 -9 4
-9 19 -12 46 -10 30 2 38 0 33 -9 -6 -9 -3 -9 9 1 9 7 23 11 30 8 8 -3 19 -2
25 2 11 7 14 809 11 2654 l0 177 -27 1 c-15 0 -34 1 -42 3 -8 1 -29 0 -45 -2z"/>
<path d="M6638 9652 l-58 -3 0 -252 c-1 -374 -1 -2560 0 -2572 0 -7 25 -10 65
-8 35 1 67 -2 70 -7 3 -6 12 -10 18 -10 8 0 8 3 -1 9 -8 4 23 8 72 7 79 0 105
-7 74 -19 -10 -4 -10 -6 0 -6 7 -1 15 6 19 15 4 10 17 15 42 14 61 -3 82 0 76
9 -3 5 -1 13 5 16 7 4 8 11 1 18 -12 16 -10 97 3 97 8 0 8 3 0 8 -6 4 -11 30
-11 57 0 28 5 53 11 57 7 5 7 8 1 8 -12 0 -14 738 -2 757 4 6 3 14 -2 17 -13
8 -10 96 4 96 7 0 6 3 -1 8 -14 9 -14 105 0 114 8 6 8 8 0 8 -14 0 -14 110 0
110 8 0 8 2 0 8 -14 9 -14 105 0 114 8 6 8 8 0 8 -15 0 -14 270 0 270 8 0 8 3
0 8 -14 9 -14 105 0 114 8 6 8 8 0 8 -14 0 -14 110 0 110 8 0 8 2 0 8 -6 4
-11 30 -11 57 0 28 5 53 11 57 7 5 7 8 1 8 -7 0 -11 114 -12 336 0 184 -3 337
-6 340 -5 6 -288 10 -369 6z"/>
<path d="M7212 9650 l-53 -5 -1 -338 c-1 -296 -4 -339 -17 -348 -14 -10 -14
-10 0 -6 14 5 16 -50 15 -596 -1 -340 -5 -608 -10 -616 -6 -9 -5 -12 2 -7 14
9 13 -134 -2 -153 -8 -11 -8 -13 1 -8 15 10 14 -132 -1 -152 -8 -11 -8 -13 1
-8 15 10 14 -132 -1 -152 -8 -11 -8 -13 0 -8 8 5 11 -53 10 -213 l-1 -220 25
-1 c14 0 112 -2 217 -2 l193 -2 0 60 c1 33 1 503 1 1045 0 739 3 988 12 999 9
12 9 13 0 8 -9 -6 -12 75 -13 355 0 199 -2 363 -3 365 -6 5 -322 8 -375 3z"/>
<path d="M7739 9647 c-1 -7 -2 -170 -3 -362 -1 -193 -5 -355 -9 -361 -3 -6 -3
-14 0 -18 4 -4 8 -473 8 -1044 1 -570 3 -1039 3 -1042 1 -3 14 -5 30 -4 15 1
46 3 70 3 43 1 43 2 42 34 -1 17 -1 37 0 42 1 6 1 37 1 70 -2 116 -2 130 3
152 3 13 1 25 -5 28 -5 4 -9 11 -9 16 0 6 3 8 8 5 4 -2 6 10 5 27 -2 37 -3 74
-3 100 0 9 0 24 0 32 -1 21 -1 82 0 100 0 17 0 64 0 115 0 19 2 45 4 57 3 13
0 25 -5 28 -5 4 -6 13 0 22 4 9 5 31 1 49 -4 19 -5 36 -1 38 7 5 5 81 -3 102
-3 7 -2 15 2 18 4 2 6 33 4 68 -3 95 -3 131 2 155 3 13 1 25 -5 28 -5 4 -9 11
-9 16 0 6 3 8 8 5 4 -2 6 10 5 27 -2 37 -3 74 -3 100 0 9 0 24 0 32 -1 21 -1
82 0 100 1 29 1 80 0 115 0 19 2 45 4 57 3 13 0 25 -5 28 -5 4 -6 13 0 22 4 9
5 31 1 49 -4 19 -5 36 -1 38 7 5 5 81 -3 102 -2 6 -2 15 1 18 9 8 8 160 -1
174 -4 7 -3 12 3 12 5 0 6 11 2 28 -4 15 -5 41 -1 57 4 17 4 39 0 50 -4 11 -4
30 1 41 4 12 5 24 2 27 -2 3 -5 105 -5 226 l1 221 -52 1 c-29 0 -60 2 -69 4
-10 2 -19 -2 -19 -8z"/>
<path d="M8079 9652 l-56 -3 1 -252 c1 -139 -3 -258 -8 -264 -5 -8 -5 -13 0
-13 5 0 9 -36 9 -80 0 -44 -3 -80 -7 -80 -4 0 -5 -7 -2 -15 9 -22 10 -105 2
-105 -4 0 -4 -10 1 -22 4 -12 5 -37 1 -55 -5 -18 -5 -33 -1 -33 4 0 6 -20 6
-45 0 -25 -3 -45 -7 -45 -4 0 -5 -7 -2 -15 9 -21 10 -105 2 -105 -3 0 -4 -8
-2 -17 8 -31 9 -543 2 -543 -4 0 -5 -7 -2 -15 9 -22 10 -105 2 -105 -4 0 -5
-7 -2 -15 9 -22 10 -105 2 -105 -4 0 -5 -7 -2 -15 9 -22 10 -105 2 -105 -4 0
-5 -6 -2 -14 8 -21 10 -546 2 -546 -4 0 -5 -7 -2 -15 9 -23 10 -105 1 -105 -5
0 -5 -5 -1 -12 4 -6 6 -30 6 -52 l-2 -41 70 0 c54 0 71 3 74 15 2 8 3 176 3
372 -1 233 1 358 8 358 7 0 7 3 0 8 -6 4 -10 95 -10 237 0 142 4 233 10 237 7
5 7 8 0 8 -7 0 -10 153 -10 440 0 242 4 440 8 440 5 0 5 5 1 11 -11 19 -11
149 1 149 7 0 7 3 0 8 -6 4 -10 108 -9 279 0 307 9 280 -87 275z"/>
<path d="M8603 9647 c-3 -5 -5 -323 -6 -707 0 -502 -3 -697 -11 -693 -8 5 -7
2 0 -8 16 -20 15 -961 0 -952 -7 5 -7 2 0 -8 8 -9 12 -85 12 -232 0 -120 2
-220 5 -223 8 -9 104 -11 124 -3 17 6 18 61 18 1087 0 651 3 1078 9 1075 5 -4
6 0 0 8 -5 8 -10 158 -11 334 -1 176 -2 322 -2 325 -1 9 -133 5 -138 -3z"/>
<path d="M8891 9640 c-4 -8 -6 -151 -6 -317 1 -205 -2 -303 -10 -303 -5 0 -4
-4 4 -9 13 -8 13 -12 0 -27 -8 -10 -9 -15 -3 -11 7 4 11 -7 11 -33 0 -22 -5
-40 -11 -40 -6 0 -5 -4 2 -9 8 -4 14 -12 14 -16 0 -4 -6 -12 -14 -16 -7 -5 -8
-9 -3 -9 6 0 11 -16 12 -35 0 -23 -3 -33 -11 -28 -8 5 -8 3 0 -8 15 -20 15
-59 1 -59 -8 0 -9 -3 -1 -8 13 -9 13 -52 -1 -52 -5 0 -4 -4 3 -9 8 -4 14 -12
14 -16 0 -4 -6 -12 -14 -16 -7 -5 -8 -9 -2 -9 14 0 14 -33 0 -42 -8 -6 -8 -8
0 -8 13 0 13 -127 1 -147 -4 -6 -2 -15 3 -18 8 -5 5 -14 -7 -27 -13 -14 -14
-19 -3 -16 11 2 15 -10 16 -54 1 -37 -3 -58 -10 -58 -8 0 -8 -3 0 -8 13 -9 13
-52 -1 -52 -5 0 -4 -4 3 -9 8 -4 14 -12 14 -16 0 -4 -6 -12 -14 -16 -7 -5 -8
-9 -3 -9 15 0 16 -40 2 -40 -8 0 -9 -3 -1 -8 14 -9 13 -142 -1 -142 -7 0 -7
-3 0 -8 14 -10 15 -105 1 -114 -8 -6 -8 -8 0 -8 6 0 12 -11 12 -25 0 -14 -6
-25 -12 -25 -8 0 -8 -3 0 -8 13 -9 13 -52 -1 -52 -5 0 -4 -4 3 -9 8 -4 14 -12
14 -16 0 -4 -6 -12 -14 -16 -7 -5 -8 -9 -2 -9 14 0 14 -33 0 -42 -8 -6 -8 -8
0 -8 13 0 13 -127 1 -147 -4 -6 -2 -15 3 -18 8 -5 5 -14 -7 -27 -13 -14 -14
-19 -3 -16 11 2 15 -10 16 -54 1 -37 -3 -58 -10 -58 -8 0 -8 -3 0 -8 13 -9 13
-52 -1 -52 -5 0 -4 -4 3 -9 8 -4 14 -12 14 -16 0 -4 -6 -12 -14 -16 -7 -5 -8
-9 -3 -9 15 0 16 -40 2 -40 -8 0 -9 -3 -1 -8 14 -9 13 -142 -1 -142 -7 0 -7
-3 0 -8 14 -10 15 -105 1 -114 -7 -5 -7 -8 3 -8 7 0 11 -6 8 -14 -8 -20 3 -22
148 -20 86 1 132 -3 137 -10 5 -7 8 -7 8 2 0 9 12 13 38 12 81 -4 101 -1 101
18 0 9 0 42 0 72 -1 30 0 64 1 75 2 23 2 60 0 90 0 11 -1 45 -1 75 0 30 -1 60
-1 65 0 6 2 24 5 40 2 17 1 39 -3 50 -4 10 -3 37 1 59 4 23 3 46 -2 52 -5 6
-6 14 -1 18 11 11 8 110 -3 118 -6 5 -5 8 3 8 7 0 10 5 7 10 -4 6 -1 18 6 26
10 12 9 13 -5 8 -14 -5 -15 -3 -7 19 5 14 7 28 4 31 -3 3 0 12 7 21 11 13 10
14 -4 9 -11 -4 -15 -2 -11 8 10 25 11 98 2 98 -4 0 -5 6 -1 12 11 18 11 62 -1
70 -6 5 -5 8 3 8 7 0 10 5 7 10 -4 6 -1 18 6 26 10 12 9 13 -5 8 -14 -5 -15
-3 -7 19 5 14 7 28 4 31 -3 3 0 12 7 21 11 13 10 14 -4 9 -11 -4 -15 -2 -11 8
9 24 11 98 3 98 -5 0 -5 12 -2 27 4 15 7 32 7 38 -2 17 -3 98 -2 130 0 17 0
39 -1 50 0 11 -1 45 -1 75 0 30 -1 60 -1 65 0 6 2 24 5 40 2 17 1 39 -3 50 -4
10 -3 37 1 59 4 23 3 46 -2 52 -5 6 -6 14 -1 18 11 11 8 110 -3 118 -6 5 -5 8
3 8 7 0 10 5 7 10 -4 6 -1 18 6 26 10 12 9 13 -5 8 -11 -4 -15 -2 -11 7 9 26
11 99 3 99 -5 0 -6 5 -3 11 11 16 13 59 4 65 -5 2 -4 16 1 30 6 14 7 30 4 36
-4 6 -6 125 -6 264 l1 254 -62 0 c-34 1 -129 2 -210 3 -124 2 -150 -1 -156
-13z"/>
<path d="M9483 9650 c-17 -5 -18 -24 -18 -322 0 -175 -4 -318 -8 -318 -5 0 -5
-5 -1 -11 12 -19 13 -109 1 -102 -6 4 -7 1 -2 -7 12 -20 13 -300 2 -293 -6 4
-7 1 -1 -8 11 -19 12 -1279 0 -1272 -5 4 -6 0 -1 -7 13 -21 13 -473 1 -482
-12 -9 10 -11 104 -10 49 1 68 -3 79 -16 12 -14 13 -15 8 -1 -8 23 58 24 73 1
9 -13 11 -14 7 -1 -4 12 3 16 29 17 21 1 34 -3 34 -11 0 -9 2 -9 8 -1 4 7 21
12 37 12 65 0 63 -2 63 56 -1 29 2 58 6 65 4 6 4 11 -1 11 -4 0 -8 20 -8 45 0
25 4 45 8 45 5 0 5 5 1 11 -9 15 -9 272 0 287 4 7 4 12 -1 12 -4 0 -8 20 -8
45 0 25 4 45 8 45 5 0 5 5 2 11 -9 14 -10 113 -1 128 4 6 4 11 -1 11 -4 0 -8
20 -8 45 0 25 4 45 8 45 5 0 5 5 1 11 -9 15 -9 272 0 287 4 7 4 12 -1 12 -4 0
-8 20 -8 45 0 25 4 45 8 45 5 0 5 5 2 11 -9 14 -10 113 -1 128 4 6 4 11 -1 11
-4 0 -8 20 -8 45 0 25 4 45 8 45 5 0 5 5 1 11 -9 15 -9 272 0 287 4 7 4 12 -1
12 -4 0 -8 20 -8 45 0 25 4 45 8 45 5 0 5 5 2 11 -9 14 -10 113 -1 128 4 6 4
11 -1 11 -4 0 -8 20 -8 45 0 25 4 45 8 45 5 0 5 5 2 10 -9 15 -10 104 -1 118
4 7 4 12 -1 12 -4 0 -8 124 -7 275 l1 275 -41 1 c-23 0 -112 1 -198 2 -86 1
-165 0 -175 -3z"/>
<path d="M10045 9650 c-3 -6 -7 -336 -5 -385 1 -16 2 -37 1 -45 0 -8 0 -53 0
-100 0 -109 0 -97 -4 -157 -2 -29 0 -53 5 -53 5 0 6 -4 3 -10 -6 -10 -7 -48
-6 -185 1 -38 -1 -82 -3 -97 -2 -16 1 -28 6 -28 5 0 6 -5 2 -11 -4 -7 -6 -50
-5 -98 3 -107 3 -96 -1 -158 -2 -29 0 -53 5 -53 4 0 5 -5 2 -10 -6 -10 -7 -32
-5 -190 0 -41 -2 -85 -4 -97 -3 -13 0 -23 5 -23 6 0 7 -5 3 -11 -4 -7 -6 -50
-5 -98 3 -107 3 -96 -1 -158 -2 -29 0 -53 5 -53 4 0 5 -5 2 -10 -6 -10 -7 -32
-5 -190 0 -41 -2 -85 -4 -97 -3 -13 0 -23 5 -23 6 0 7 -5 3 -11 -4 -7 -6 -50
-5 -98 3 -107 3 -96 -1 -158 -2 -29 0 -53 5 -53 4 0 5 -5 1 -11 -8 -13 -8
-148 0 -156 3 -4 52 -7 108 -7 75 -1 102 -4 101 -13 -2 -7 4 -10 13 -6 12 5
13 7 2 14 -7 4 29 8 82 7 52 0 102 0 110 1 13 1 16 14 14 66 -1 41 3 62 9 58
6 -4 7 -1 1 8 -14 22 -14 90 0 82 8 -5 8 -3 0 8 -12 16 -13 88 -1 106 4 6 3
14 -3 18 -5 3 -10 13 -10 21 0 10 5 12 13 8 9 -6 9 -4 -1 8 -9 11 -10 18 -2
23 6 3 7 12 3 18 -13 20 -12 118 1 110 8 -5 8 -3 0 8 -15 20 -12 92 5 113 12
15 12 17 0 14 -10 -2 -14 9 -15 39 -1 29 3 40 10 36 6 -4 6 0 -1 8 -10 12 -10
18 0 29 6 7 7 10 1 7 -7 -4 -11 7 -11 33 0 26 4 37 11 33 8 -5 8 -3 0 8 -12
16 -13 88 -1 106 4 6 3 14 -3 18 -5 3 -10 13 -10 21 0 10 5 12 13 8 9 -6 9 -4
-1 8 -9 11 -10 18 -2 23 6 3 7 12 3 18 -13 20 -12 118 1 110 8 -5 8 -3 0 8
-15 20 -12 92 5 113 12 15 12 17 0 14 -10 -2 -14 9 -15 39 -1 29 3 40 10 36 6
-4 6 0 -1 8 -10 12 -10 18 0 29 6 7 7 10 1 7 -7 -4 -11 7 -11 33 0 26 4 37 11
33 8 -5 8 -3 0 8 -12 16 -13 88 -1 106 4 6 3 14 -3 18 -5 3 -10 13 -10 21 0
10 5 12 13 8 9 -6 9 -4 -1 8 -9 11 -10 18 -2 23 6 3 7 12 3 18 -13 20 -12 118
1 110 8 -5 8 -3 0 8 -15 20 -12 92 5 113 12 15 12 17 0 14 -10 -2 -14 9 -15
39 -1 29 3 40 10 36 6 -4 5 1 -3 11 -13 15 -13 19 0 27 8 5 9 9 4 9 -6 0 -11
16 -12 35 0 22 3 32 10 28 6 -4 7 -1 1 8 -13 21 -13 92 0 108 7 10 7 13 0 8
-7 -4 -10 78 -10 280 1 220 -2 287 -12 290 -16 7 -413 9 -417 3z"/>
<path d="M10627 9648 c-13 -8 -19 -2792 -6 -2819 6 -12 21 -14 71 -11 35 2 65
6 67 8 7 7 4 2814 -2 2821 -9 8 -117 9 -130 1z"/>
<path d="M10923 9650 c-17 -5 -18 -27 -18 -350 0 -190 -3 -351 -8 -357 -6 -8
-6 -13 0 -13 5 0 9 -9 10 -20 1 -11 -3 -20 -8 -20 -6 0 -6 -7 -1 -17 10 -21
10 -33 -1 -50 -5 -7 -4 -13 0 -13 5 0 9 -9 10 -20 1 -11 -3 -20 -8 -20 -7 0 3
-32 15 -46 1 0 -5 -8 -13 -17 -7 -10 -9 -17 -4 -17 5 0 9 -9 10 -20 1 -11 -3
-20 -8 -20 -6 0 -5 -9 2 -22 13 -24 13 -26 -3 -45 -6 -7 -6 -13 -1 -13 5 0 9
-9 10 -20 1 -11 -3 -20 -8 -20 -6 0 -5 -9 2 -22 13 -24 13 -26 -3 -45 -6 -7
-6 -13 -1 -13 5 0 9 -9 10 -20 1 -11 -3 -20 -8 -20 -6 0 -6 -7 -1 -17 10 -21
10 -33 -1 -50 -5 -7 -4 -13 0 -13 5 0 9 -9 10 -20 1 -11 -3 -20 -8 -20 -6 0
-6 -7 -1 -17 10 -21 10 -33 -1 -50 -5 -7 -4 -13 0 -13 5 0 9 -9 10 -20 1 -11
-3 -20 -8 -20 -6 0 -6 -7 -1 -17 10 -21 10 -33 -1 -50 -5 -7 -4 -13 0 -13 5 0
9 -9 10 -20 1 -11 -3 -20 -8 -20 -6 0 -6 -7 -1 -17 10 -21 10 -33 -1 -50 -5
-7 -4 -13 0 -13 5 0 9 -9 10 -20 1 -11 -3 -20 -8 -20 -6 0 -6 -7 -1 -17 10
-21 10 -33 -1 -50 -5 -7 -4 -13 1 -13 12 0 11 -34 -2 -42 -7 -5 -6 -8 3 -8 11
0 11 -3 1 -15 -7 -8 -8 -15 -3 -15 5 0 9 -9 10 -20 1 -11 -3 -20 -8 -20 -7 0
3 -32 15 -46 1 0 -5 -8 -13 -17 -7 -10 -9 -17 -4 -17 5 0 9 -9 10 -20 1 -11
-3 -20 -8 -20 -6 0 -5 -9 2 -22 13 -24 13 -26 -3 -45 -6 -7 -6 -13 -1 -13 5 0
9 -9 10 -20 1 -11 -3 -20 -8 -20 -7 0 3 -32 15 -46 1 0 -5 -8 -13 -17 -7 -10
-9 -17 -4 -17 5 0 9 -9 10 -20 1 -11 -3 -20 -8 -20 -6 0 -6 -6 0 -17 12 -23
12 -35 -1 -50 -6 -7 -6 -13 -1 -13 5 0 9 -9 10 -20 1 -11 -3 -20 -8 -20 -7 0
3 -32 15 -46 1 0 -5 -8 -13 -17 -7 -10 -9 -17 -4 -17 5 0 9 -9 10 -20 1 -11
-3 -20 -8 -20 -6 0 -6 -7 -1 -17 10 -21 10 -33 -1 -50 -5 -7 -4 -13 0 -13 5 0
9 -9 10 -20 1 -11 -3 -20 -8 -20 -6 0 -6 -7 -1 -17 10 -21 10 -33 -1 -50 -5
-7 -4 -13 0 -13 5 0 9 -9 10 -20 1 -11 -3 -20 -8 -20 -6 0 -6 -7 -1 -17 5 -10
8 -26 7 -35 -2 -10 3 -18 11 -19 56 -3 125 -1 130 4 5 4 7 1094 4 2584 l0 241
-55 4 c-30 1 -62 1 -72 -2z"/>
<path d="M11533 9652 l-52 -3 -1 -237 c0 -130 -1 -276 -2 -324 0 -47 3 -91 6
-97 4 -6 3 -11 -3 -11 -5 0 -8 -10 -5 -22 4 -21 5 -44 3 -88 0 -8 0 -37 0 -65
0 -27 0 -57 0 -65 0 -8 0 -33 0 -55 1 -22 1 -49 0 -60 0 -11 0 -53 1 -93 0
-40 -2 -77 -5 -82 -3 -5 -1 -11 4 -15 6 -3 7 -15 2 -27 -4 -11 -5 -39 -1 -62
3 -22 3 -52 0 -66 -3 -14 -3 -41 0 -61 4 -19 4 -43 0 -54 -3 -10 -4 -37 0 -59
3 -23 3 -54 0 -71 -3 -16 -3 -51 0 -78 4 -26 4 -49 2 -52 -7 -7 -5 -183 3
-195 3 -5 2 -10 -4 -10 -5 0 -8 -10 -5 -22 4 -21 5 -44 3 -88 0 -8 0 -37 0
-65 0 -27 0 -57 0 -65 0 -8 0 -33 0 -55 1 -22 1 -49 0 -60 0 -11 0 -53 1 -93
0 -40 -2 -77 -5 -82 -3 -5 -1 -11 4 -15 6 -3 7 -15 2 -27 -4 -11 -5 -39 -1
-62 3 -22 3 -52 0 -66 -3 -14 -3 -41 0 -61 4 -19 4 -44 0 -54 -9 -27 0 -65 16
-66 8 -1 23 -1 34 -1 11 0 37 0 58 1 l39 1 -1 1409 c-1 775 -5 1413 -9 1417
-9 9 -16 10 -84 6z"/>
<path d="M11797 9652 l-27 -3 2 -1417 3 -1417 135 1 c88 1 138 -3 142 -10 5
-8 8 -7 8 2 0 8 21 12 73 12 l72 0 0 274 c0 165 3 272 9 269 5 -4 6 0 0 8 -12
20 -12 169 1 169 7 0 7 3 0 8 -14 10 -16 64 -2 55 6 -4 7 -1 1 8 -12 20 -13
119 -1 112 6 -4 7 -1 2 7 -12 20 -13 120 -2 113 6 -4 7 -1 1 8 -12 20 -12 169
1 169 7 0 7 3 0 8 -14 10 -16 64 -2 55 6 -4 7 -1 1 8 -12 19 -12 239 0 232 5
-4 6 -1 0 8 -4 8 -9 305 -9 661 -1 356 -4 651 -8 654 -6 6 -351 11 -400 6z"/>
<path d="M12349 9635 c0 -11 -1 -135 -1 -275 0 -174 -4 -260 -12 -269 -8 -11
-8 -13 0 -8 13 7 14 -230 1 -250 -4 -6 -3 -14 1 -17 11 -7 10 -166 -1 -183 -4
-6 -3 -14 2 -17 11 -7 9 -85 -2 -103 -4 -6 -3 -14 2 -18 11 -6 10 -84 -1 -101
-4 -6 -4 -14 0 -18 12 -13 11 -116 -2 -109 -6 4 -5 -1 3 -10 11 -14 11 -17 0
-17 -9 0 -10 -3 -3 -8 12 -8 13 -380 1 -399 -4 -6 -3 -14 2 -17 11 -7 9 -85
-2 -103 -4 -6 -3 -14 1 -17 11 -7 9 -197 -2 -215 -6 -10 -5 -12 2 -7 13 8 12
-20 -1 -40 -3 -6 -3 -14 1 -18 12 -13 11 -116 -2 -109 -6 4 -5 -1 3 -10 11
-14 11 -17 0 -17 -9 0 -10 -3 -3 -8 12 -8 13 -220 1 -239 -4 -6 -3 -14 2 -17
11 -7 9 -91 -2 -102 -4 -4 -2 -13 3 -19 6 -7 9 -23 6 -36 -6 -38 7 -44 80 -39
l67 5 -1 149 c-2 107 1 153 10 164 9 11 9 14 1 9 -17 -10 -17 571 0 592 8 10
8 13 1 8 -17 -10 -18 331 -1 352 8 10 9 13 0 8 -17 -10 -17 571 0 592 8 10 8
13 1 8 -9 -5 -12 117 -13 465 0 259 -3 473 -5 475 -2 2 -34 5 -70 6 -60 2 -66
0 -67 -18z"/>
<path d="M12665 9650 l-30 -5 0 -247 c0 -135 -4 -244 -8 -241 -5 3 -5 -3 0
-13 6 -14 8 -347 3 -489 0 -5 1 -49 2 -97 2 -47 -1 -84 -5 -81 -5 3 -4 -3 2
-14 7 -14 7 -24 -2 -33 -7 -7 -7 -10 -1 -7 12 7 11 -133 -1 -153 -5 -7 -4 -11
1 -7 7 4 9 -418 4 -568 0 -5 1 -49 2 -97 2 -47 -1 -84 -5 -81 -5 3 -4 -3 2
-14 7 -14 7 -24 -2 -33 -7 -7 -7 -10 -1 -7 12 7 11 -133 -1 -153 -5 -7 -4 -11
1 -7 5 3 9 -96 8 -239 -1 -217 1 -244 15 -245 9 -1 27 -2 41 -2 15 -1 24 -7
22 -15 -1 -8 2 -11 8 -7 6 3 8 11 5 16 -4 5 10 9 29 9 20 0 36 -5 36 -11 0 -6
5 -7 13 -2 6 4 62 9 122 10 61 1 118 2 128 2 17 1 18 19 15 311 -2 171 0 310
4 310 4 0 5 7 2 14 -8 21 -10 226 -2 226 3 0 4 8 2 18 -8 30 -9 702 -2 702 4
0 5 7 2 14 -9 24 -10 226 -1 226 5 0 6 4 2 9 -3 5 -6 233 -7 505 l-2 496 -95
1 c-53 0 -136 1 -186 2 -49 1 -104 0 -120 -3z"/>
<path d="M13509 9649 c-6 -3 -10 -389 -11 -1000 0 -718 -4 -998 -12 -1008 -8
-11 -8 -13 1 -8 15 10 15 -133 -1 -152 -8 -11 -8 -13 1 -8 15 10 15 -133 -1
-152 -8 -11 -8 -13 0 -8 9 5 12 -57 10 -243 l-1 -250 33 0 c24 0 31 -4 26 -12
-6 -10 -3 -9 8 0 10 8 30 11 47 9 37 -6 33 -33 35 253 1 124 4 230 8 236 4 6
4 14 0 18 -11 11 -9 725 2 719 5 -4 6 0 0 8 -12 19 -12 639 0 632 5 -4 6 0 0
8 -11 17 -12 329 -1 336 4 2 4 10 0 16 -4 7 -8 144 -9 304 0 161 -3 296 -7
299 -8 8 -116 11 -128 3z"/>
<path d="M13789 9635 c0 -11 -1 -135 -1 -275 0 -165 -4 -260 -11 -268 -7 -9
-7 -16 -1 -20 12 -8 13 -221 1 -239 -4 -6 -3 -14 2 -17 10 -7 9 -166 -2 -183
-4 -6 -3 -14 2 -17 11 -7 9 -85 -2 -103 -4 -6 -3 -14 2 -17 13 -9 12 -86 -2
-86 -8 0 -9 -3 -1 -8 12 -8 13 -70 1 -89 -4 -6 -3 -14 2 -17 11 -7 9 -85 -2
-103 -4 -6 -3 -14 2 -17 10 -7 9 -166 -2 -183 -4 -6 -3 -14 2 -17 11 -7 9 -85
-2 -103 -4 -6 -3 -14 2 -17 11 -7 9 -85 -2 -103 -4 -6 -3 -14 2 -17 11 -7 9
-85 -2 -103 -4 -6 -3 -14 2 -17 11 -7 9 -85 -2 -103 -4 -6 -3 -14 2 -17 11 -7
9 -85 -2 -103 -4 -6 -3 -14 2 -17 11 -7 9 -85 -2 -103 -4 -6 -4 -14 1 -17 4
-3 8 -100 7 -216 0 -117 3 -214 8 -217 5 -3 38 -6 73 -7 62 -1 64 0 64 24 3
148 -1 2804 -4 2807 -2 2 -34 5 -70 6 -60 2 -66 0 -67 -18z"/>
<path d="M3879 9033 c-13 -16 -12 -17 4 -4 9 7 17 15 17 17 0 8 -8 3 -21 -13z"/>
<path d="M4750 9040 c0 -5 5 -10 11 -10 5 0 7 5 4 10 -3 6 -8 10 -11 10 -2 0
-4 -4 -4 -10z"/>
<path d="M14000 9040 c-9 -6 -10 -10 -3 -10 6 0 15 5 18 10 8 12 4 12 -15 0z"/>
<path d="M7955 9009 c-4 -6 -5 -12 -2 -15 2 -3 7 2 10 11 7 17 1 20 -8 4z"/>
<path d="M9395 9011 c-3 -5 -2 -12 3 -15 5 -3 9 1 9 9 0 17 -3 19 -12 6z"/>
<path d="M11436 8922 c-3 -5 1 -9 9 -9 8 0 12 4 9 9 -3 4 -7 8 -9 8 -2 0 -6
-4 -9 -8z"/>
<path d="M2435 8870 c-4 -6 -11 -7 -17 -4 -7 4 -8 2 -4 -5 6 -9 11 -9 22 0 14
11 18 19 10 19 -3 0 -8 -5 -11 -10z"/>
<path d="M7130 8860 c0 -5 5 -10 11 -10 5 0 7 5 4 10 -3 6 -8 10 -11 10 -2 0
-4 -4 -4 -10z"/>
<path d="M12599 8833 c-13 -16 -12 -17 4 -4 9 7 17 15 17 17 0 8 -8 3 -21 -13z"/>
<path d="M13110 8776 c0 -2 8 -10 18 -17 15 -13 16 -12 3 4 -13 16 -21 21 -21
13z"/>
<path d="M7669 8683 c-13 -16 -12 -17 4 -4 9 7 17 15 17 17 0 8 -8 3 -21 -13z"/>
<path d="M6550 8681 c0 -6 4 -13 10 -16 6 -3 7 1 4 9 -7 18 -14 21 -14 7z"/>
<path d="M9420 8686 c0 -2 8 -10 18 -17 15 -13 16 -12 3 4 -13 16 -21 21 -21
13z"/>
<path d="M9995 8660 c-3 -5 -1 -10 4 -10 6 0 11 5 11 10 0 6 -2 10 -4 10 -3 0
-8 -4 -11 -10z"/>
<path d="M2415 8560 c3 -5 8 -10 11 -10 2 0 4 5 4 10 0 6 -5 10 -11 10 -5 0
-7 -4 -4 -10z"/>
<path d="M12559 8553 c-13 -16 -12 -17 4 -4 9 7 17 15 17 17 0 8 -8 3 -21 -13z"/>
<path d="M3919 8513 c-13 -16 -12 -17 4 -4 16 13 21 21 13 21 -2 0 -10 -8 -17
-17z"/>
<path d="M7130 8380 c0 -5 5 -10 11 -10 5 0 7 5 4 10 -3 6 -8 10 -11 10 -2 0
-4 -4 -4 -10z"/>
<path d="M3355 8369 c-4 -6 -5 -12 -2 -15 2 -3 7 2 10 11 7 17 1 20 -8 4z"/>
<path d="M6550 8361 c0 -6 4 -13 10 -16 6 -3 7 1 4 9 -7 18 -14 21 -14 7z"/>
<path d="M7669 8203 c-13 -16 -12 -17 4 -4 9 7 17 15 17 17 0 8 -8 3 -21 -13z"/>
<path d="M12269 8203 c-13 -16 -12 -17 4 -4 9 7 17 15 17 17 0 8 -8 3 -21 -13z"/>
<path d="M3350 8201 c0 -6 4 -13 10 -16 6 -3 7 1 4 9 -7 18 -14 21 -14 7z"/>
<path d="M2476 8113 c-6 -14 -5 -15 5 -6 7 7 10 15 7 18 -3 3 -9 -2 -12 -12z"/>
<path d="M3355 8049 c-4 -6 -5 -12 -2 -15 2 -3 7 2 10 11 7 17 1 20 -8 4z"/>
<path d="M3919 8033 c-13 -16 -12 -17 4 -4 16 13 21 21 13 21 -2 0 -10 -8 -17
-17z"/>
<path d="M6550 8041 c0 -6 4 -13 10 -16 6 -3 7 1 4 9 -7 18 -14 21 -14 7z"/>
<path d="M9995 8020 c-3 -5 -1 -10 4 -10 6 0 11 5 11 10 0 6 -2 10 -4 10 -3 0
-8 -4 -11 -10z"/>
<path d="M12236 7998 c3 -5 10 -6 15 -3 13 9 11 12 -6 12 -8 0 -12 -4 -9 -9z"/>
<path d="M2506 7962 c-3 -5 1 -9 9 -9 8 0 12 4 9 9 -3 4 -7 8 -9 8 -2 0 -6 -4
-9 -8z"/>
<path d="M2435 7910 c-4 -6 -11 -7 -17 -4 -7 4 -8 2 -4 -5 6 -9 11 -9 22 0 14
11 18 19 10 19 -3 0 -8 -5 -11 -10z"/>
<path d="M7130 7900 c0 -5 5 -10 11 -10 5 0 7 5 4 10 -3 6 -8 10 -11 10 -2 0
-4 -4 -4 -10z"/>
<path d="M3350 7881 c0 -6 4 -13 10 -16 6 -3 7 1 4 9 -7 18 -14 21 -14 7z"/>
<path d="M12599 7873 c-13 -16 -12 -17 4 -4 9 7 17 15 17 17 0 8 -8 3 -21 -13z"/>
<path d="M7669 7723 c-13 -16 -12 -17 4 -4 9 7 17 15 17 17 0 8 -8 3 -21 -13z"/>
<path d="M2415 7600 c3 -5 8 -10 11 -10 2 0 4 5 4 10 0 6 -5 10 -11 10 -5 0
-7 -4 -4 -10z"/>
<path d="M12559 7593 c-13 -16 -12 -17 4 -4 9 7 17 15 17 17 0 8 -8 3 -21 -13z"/>
<path d="M12236 7518 c3 -5 10 -6 15 -3 13 9 11 12 -6 12 -8 0 -12 -4 -9 -9z"/>
<path d="M7130 7500 c0 -5 5 -10 11 -10 5 0 7 5 4 10 -3 6 -8 10 -11 10 -2 0
-4 -4 -4 -10z"/>
<path d="M9420 7406 c0 -2 8 -10 18 -17 15 -13 16 -12 3 4 -13 16 -21 21 -21
13z"/>
<path d="M9995 7380 c-3 -5 -1 -10 4 -10 6 0 11 5 11 10 0 6 -2 10 -4 10 -3 0
-8 -4 -11 -10z"/>
<path d="M7669 7243 c-13 -16 -12 -17 4 -4 9 7 17 15 17 17 0 8 -8 3 -21 -13z"/>
<path d="M12269 7243 c-13 -16 -12 -17 4 -4 9 7 17 15 17 17 0 8 -8 3 -21 -13z"/>
<path d="M7130 7180 c0 -5 5 -10 11 -10 5 0 7 5 4 10 -3 6 -8 10 -11 10 -2 0
-4 -4 -4 -10z"/>
<path d="M5910 7121 c0 -6 4 -13 10 -16 6 -3 7 1 4 9 -7 18 -14 21 -14 7z"/>
<path d="M7114 7006 c1 -8 5 -18 8 -22 4 -3 5 1 4 10 -1 8 -5 18 -8 22 -4 3
-5 -1 -4 -10z"/>
<path d="M13990 7016 c0 -2 8 -10 18 -17 15 -13 16 -12 3 4 -13 16 -21 21 -21
13z"/>
<path d="M7130 6940 c0 -5 5 -10 11 -10 5 0 7 5 4 10 -3 6 -8 10 -11 10 -2 0
-4 -4 -4 -10z"/>
<path d="M12599 6913 c-13 -16 -12 -17 4 -4 9 7 17 15 17 17 0 8 -8 3 -21 -13z"/>
<path d="M2416 6858 c3 -5 10 -6 15 -3 13 9 11 12 -6 12 -8 0 -12 -4 -9 -9z"/>
<path d="M4790 6840 c0 -5 5 -10 11 -10 5 0 7 5 4 10 -3 6 -8 10 -11 10 -2 0
-4 -4 -4 -10z"/>
<path d="M910 6800 c0 -5 5 -10 11 -10 5 0 7 5 4 10 -3 6 -8 10 -11 10 -2 0
-4 -4 -4 -10z"/>
<path d="M1000 6806 c0 -2 7 -7 16 -10 8 -3 12 -2 9 4 -6 10 -25 14 -25 6z"/>
<path d="M2333 6791 c0 -11 5 -18 9 -15 4 3 5 11 1 19 -7 21 -12 19 -10 -4z"/>
<path d="M2840 6806 c0 -2 7 -7 16 -10 8 -3 12 -2 9 4 -6 10 -25 14 -25 6z"/>
<path d="M3486 6798 c3 -5 10 -6 15 -3 13 9 11 12 -6 12 -8 0 -12 -4 -9 -9z"/>
<path d="M5454 6796 c1 -8 5 -18 8 -22 4 -3 5 1 4 10 -1 8 -5 18 -8 22 -4 3
-5 -1 -4 -10z"/>
<path d="M5756 6798 c3 -5 10 -6 15 -3 13 9 11 12 -6 12 -8 0 -12 -4 -9 -9z"/>
<path d="M7360 6800 c-9 -6 -10 -10 -3 -10 6 0 15 5 18 10 8 12 4 12 -15 0z"/>
<path d="M7479 6793 c-13 -16 -12 -17 4 -4 9 7 17 15 17 17 0 8 -8 3 -21 -13z"/>
<path d="M10093 6791 c0 -11 5 -18 9 -15 4 3 5 11 1 19 -7 21 -12 19 -10 -4z"/>
<path d="M12001 6796 c-9 -11 -9 -16 1 -22 7 -4 10 -4 6 1 -4 4 -3 14 3 22 6
7 9 13 6 13 -2 0 -10 -6 -16 -14z"/>
<path d="M12230 6801 c0 -6 4 -13 10 -16 6 -3 7 1 4 9 -7 18 -14 21 -14 7z"/>
<path d="M12960 6800 c-9 -6 -10 -10 -3 -10 6 0 15 5 18 10 8 12 4 12 -15 0z"/>
<path d="M11915 6791 c-3 -5 -2 -12 3 -15 5 -3 9 1 9 9 0 17 -3 19 -12 6z"/>
<path d="M12630 6797 c0 -2 6 -10 14 -16 11 -9 16 -9 22 1 4 7 4 10 -1 6 -4
-4 -14 -3 -22 3 -7 6 -13 9 -13 6z"/>
<path d="M2827 6779 c7 -7 15 -10 18 -7 3 3 -2 9 -12 12 -14 6 -15 5 -6 -5z"/>
<path d="M2933 6783 c4 -3 1 -13 -6 -22 -11 -14 -10 -14 5 -2 16 12 16 31 1
31 -4 0 -3 -3 0 -7z"/>
<path d="M6655 6780 c3 -5 8 -10 11 -10 2 0 4 5 4 10 0 6 -5 10 -11 10 -5 0
-7 -4 -4 -10z"/>
<path d="M6827 6779 c7 -7 15 -10 18 -7 3 3 -2 9 -12 12 -14 6 -15 5 -6 -5z"/>
<path d="M7215 6780 c-3 -5 -1 -10 4 -10 6 0 11 5 11 10 0 6 -2 10 -4 10 -3 0
-8 -4 -11 -10z"/>
<path d="M9246 6778 c3 -5 10 -6 15 -3 13 9 11 12 -6 12 -8 0 -12 -4 -9 -9z"/>
<path d="M9750 6781 c0 -6 4 -12 8 -15 5 -3 9 1 9 9 0 8 -4 15 -9 15 -4 0 -8
-4 -8 -9z"/>
<path d="M9846 6778 c3 -5 10 -6 15 -3 13 9 11 12 -6 12 -8 0 -12 -4 -9 -9z"/>
<path d="M10370 6779 c0 -5 5 -7 10 -4 6 3 10 8 10 11 0 2 -4 4 -10 4 -5 0
-10 -5 -10 -11z"/>
<path d="M10410 6780 c0 -5 5 -10 11 -10 5 0 7 5 4 10 -3 6 -8 10 -11 10 -2 0
-4 -4 -4 -10z"/>
<path d="M11960 6780 c-9 -6 -10 -10 -3 -10 6 0 15 5 18 10 8 12 4 12 -15 0z"/>
<path d="M2211 6767 c-8 -10 -7 -14 2 -14 8 0 14 6 14 14 0 7 -1 13 -2 13 -2
0 -8 -6 -14 -13z"/>
<path d="M3709 6763 c-13 -16 -12 -17 4 -4 9 7 17 15 17 17 0 8 -8 3 -21 -13z"/>
<path d="M4073 6765 c0 -8 4 -12 9 -9 5 3 6 10 3 15 -9 13 -12 11 -12 -6z"/>
<path d="M5613 6765 c0 -8 4 -12 9 -9 5 3 6 10 3 15 -9 13 -12 11 -12 -6z"/>
<path d="M5753 6767 c0 -8 6 -14 14 -14 9 0 10 4 2 14 -6 7 -12 13 -14 13 -1
0 -2 -6 -2 -13z"/>
<path d="M6797 6773 c-10 -9 -9 -23 1 -23 5 0 9 7 9 15 0 17 -1 18 -10 8z"/>
<path d="M2259 6753 c-13 -16 -12 -17 4 -4 9 7 17 15 17 17 0 8 -8 3 -21 -13z"/>
<path d="M2571 6767 c2 -1 13 -9 24 -17 19 -14 19 -14 6 3 -7 9 -18 17 -24 17
-6 0 -8 -1 -6 -3z"/>
<path d="M3079 6753 c-13 -16 -12 -17 4 -4 16 13 21 21 13 21 -2 0 -10 -8 -17
-17z"/>
<path d="M3675 6760 c3 -5 8 -10 11 -10 2 0 4 5 4 10 0 6 -5 10 -11 10 -5 0
-7 -4 -4 -10z"/>
<path d="M5719 6753 c-13 -16 -12 -17 4 -4 9 7 17 15 17 17 0 8 -8 3 -21 -13z"/>
<path d="M5906 6762 c-3 -5 1 -9 9 -9 8 0 15 4 15 9 0 4 -4 8 -9 8 -6 0 -12
-4 -15 -8z"/>
<path d="M7476 6753 c-6 -14 -5 -15 5 -6 7 7 10 15 7 18 -3 3 -9 -2 -12 -12z"/>
<path d="M8937 6755 c-4 -8 -3 -16 1 -19 4 -3 9 4 9 15 2 23 -3 25 -10 4z"/>
<path d="M9056 6758 c3 -5 10 -6 15 -3 13 9 11 12 -6 12 -8 0 -12 -4 -9 -9z"/>
<path d="M9559 6753 c-13 -16 -12 -17 4 -4 9 7 17 15 17 17 0 8 -8 3 -21 -13z"/>
<path d="M11819 6768 c-5 -18 -6 -38 -1 -34 7 8 12 36 6 36 -2 0 -4 -1 -5 -2z"/>
<path d="M12916 6762 c-3 -5 1 -9 9 -9 8 0 12 4 9 9 -3 4 -7 8 -9 8 -2 0 -6
-4 -9 -8z"/>
<path d="M834 6742 c4 -3 14 -7 22 -8 9 -1 13 0 10 4 -4 3 -14 7 -22 8 -9 1
-13 0 -10 -4z"/>
<path d="M895 6740 c-3 -5 -1 -10 4 -10 6 0 11 5 11 10 0 6 -2 10 -4 10 -3 0
-8 -4 -11 -10z"/>
<path d="M6654 6736 c1 -8 5 -18 8 -22 4 -3 5 1 4 10 -1 8 -5 18 -8 22 -4 3
-5 -1 -4 -10z"/>
<path d="M9114 6733 c2 -10 0 -23 -5 -29 -5 -6 -4 -11 5 -11 13 0 16 40 4 52
-4 4 -5 -1 -4 -12z"/>
<path d="M9230 6745 c0 -7 30 -13 34 -7 3 4 -4 9 -15 9 -10 1 -19 0 -19 -2z"/>
<path d="M9710 6742 c0 -5 7 -9 15 -9 8 0 12 4 9 9 -3 4 -9 8 -15 8 -5 0 -9
-4 -9 -8z"/>
<path d="M10270 6742 c0 -5 7 -9 15 -9 8 0 12 4 9 9 -3 4 -9 8 -15 8 -5 0 -9
-4 -9 -8z"/>
<path d="M12190 6741 c0 -6 4 -13 10 -16 6 -3 7 1 4 9 -7 18 -14 21 -14 7z"/>
<path d="M2115 6731 c-3 -5 -2 -12 3 -15 5 -3 9 1 9 9 0 17 -3 19 -12 6z"/>
<path d="M10442 6724 c10 -10 20 -16 22 -13 3 3 -5 11 -17 18 -21 13 -21 12
-5 -5z"/>
<path d="M11959 6738 c-5 -18 -6 -38 -1 -34 7 8 12 36 6 36 -2 0 -4 -1 -5 -2z"/>
<path d="M995 6721 c-3 -5 -2 -12 3 -15 5 -3 9 1 9 9 0 17 -3 19 -12 6z"/>
<path d="M2020 6720 c-9 -6 -10 -10 -3 -10 6 0 15 5 18 10 8 12 4 12 -15 0z"/>
<path d="M2366 6718 c3 -5 10 -6 15 -3 13 9 11 12 -6 12 -8 0 -12 -4 -9 -9z"/>
<path d="M2575 6720 c-3 -5 -1 -10 4 -10 6 0 11 5 11 10 0 6 -2 10 -4 10 -3 0
-8 -4 -11 -10z"/>
<path d="M2730 6721 c0 -6 4 -12 8 -15 5 -3 9 1 9 9 0 8 -4 15 -9 15 -4 0 -8
-4 -8 -9z"/>
<path d="M2795 6720 c-3 -5 3 -7 12 -5 10 1 25 -2 33 -8 12 -9 13 -9 3 3 -15
16 -41 22 -48 10z"/>
<path d="M2876 6713 c-6 -14 -5 -15 5 -6 7 7 10 15 7 18 -3 3 -9 -2 -12 -12z"/>
<path d="M2916 6722 c-3 -5 1 -9 9 -9 8 0 12 4 9 9 -3 4 -7 8 -9 8 -2 0 -6 -4
-9 -8z"/>
<path d="M3599 6728 c-5 -18 -6 -38 -1 -34 7 8 12 36 6 36 -2 0 -4 -1 -5 -2z"/>
<path d="M6773 6715 c0 -8 4 -12 9 -9 4 3 8 9 8 15 0 5 -4 9 -8 9 -5 0 -9 -7
-9 -15z"/>
<path d="M7355 6719 c-3 -4 2 -6 10 -5 21 3 28 13 10 13 -9 0 -18 -4 -20 -8z"/>
<path d="M9075 6721 c-3 -5 -2 -12 3 -15 5 -3 9 1 9 9 0 17 -3 19 -12 6z"/>
<path d="M9176 6718 c3 -5 10 -6 15 -3 13 9 11 12 -6 12 -8 0 -12 -4 -9 -9z"/>
<path d="M9490 6720 c0 -5 5 -10 11 -10 5 0 7 5 4 10 -3 6 -8 10 -11 10 -2 0
-4 -4 -4 -10z"/>
<path d="M12000 6725 c0 -2 6 -8 13 -14 10 -8 14 -7 14 2 0 8 -6 14 -14 14 -7
0 -13 -1 -13 -2z"/>
<path d="M12806 6718 c3 -5 10 -6 15 -3 13 9 11 12 -6 12 -8 0 -12 -4 -9 -9z"/>
<path d="M12876 6722 c-3 -5 1 -9 9 -9 8 0 12 4 9 9 -3 4 -7 8 -9 8 -2 0 -6
-4 -9 -8z"/>
<path d="M1031 6707 c-8 -10 -7 -14 2 -14 8 0 14 6 14 14 0 7 -1 13 -2 13 -2
0 -8 -6 -14 -13z"/>
<path d="M6719 6718 c-5 -18 -6 -38 -1 -34 7 8 12 36 6 36 -2 0 -4 -1 -5 -2z"/>
<path d="M7150 6717 c0 -2 6 -10 14 -16 11 -9 16 -9 22 1 4 7 4 10 -1 6 -4 -4
-14 -3 -22 3 -7 6 -13 9 -13 6z"/>
<path d="M895 6700 c-3 -5 -1 -10 4 -10 6 0 11 5 11 10 0 6 -2 10 -4 10 -3 0
-8 -4 -11 -10z"/>
<path d="M2150 6698 c0 -4 4 -8 9 -8 6 0 12 4 15 8 3 5 -1 9 -9 9 -8 0 -15 -4
-15 -9z"/>
<path d="M2196 6702 c-2 -4 -1 -14 4 -22 7 -11 9 -9 7 8 -1 24 -3 26 -11 14z"/>
<path d="M3774 6680 c0 -16 3 -27 6 -25 8 5 6 42 -1 50 -3 2 -5 -8 -5 -25z"/>
<path d="M5434 6702 c4 -3 14 -7 22 -8 9 -1 13 0 10 4 -4 3 -14 7 -22 8 -9 1
-13 0 -10 -4z"/>
<path d="M5634 6684 c1 -13 5 -26 8 -29 4 -4 5 1 4 12 -2 10 0 23 5 29 5 6 4
11 -5 11 -7 0 -12 -10 -12 -23z"/>
<path d="M5679 6708 c-6 -21 -5 -38 1 -38 5 0 8 9 7 20 -1 17 -5 26 -8 18z"/>
<path d="M5816 6702 c-3 -5 1 -9 9 -9 8 0 12 4 9 9 -3 4 -7 8 -9 8 -2 0 -6 -4
-9 -8z"/>
<path d="M6930 6700 c0 -5 5 -10 11 -10 5 0 7 5 4 10 -3 6 -8 10 -11 10 -2 0
-4 -4 -4 -10z"/>
<path d="M7215 6700 c-3 -5 -1 -10 4 -10 6 0 11 5 11 10 0 6 -2 10 -4 10 -3 0
-8 -4 -11 -10z"/>
<path d="M8910 6699 c0 -5 5 -7 10 -4 6 3 10 8 10 11 0 2 -4 4 -10 4 -5 0 -10
-5 -10 -11z"/>
<path d="M9240 6700 c-12 -7 -10 -9 7 -7 12 0 19 5 17 9 -6 10 -6 10 -24 -2z"/>
<path d="M10186 6698 c3 -4 9 -8 15 -8 5 0 9 4 9 8 0 5 -7 9 -15 9 -8 0 -12
-4 -9 -9z"/>
<path d="M12073 6703 c4 -3 1 -13 -6 -22 -11 -14 -10 -14 5 -2 16 12 16 31 1
31 -4 0 -3 -3 0 -7z"/>
<path d="M12690 6699 c0 -5 5 -7 10 -4 6 3 10 8 10 11 0 2 -4 4 -10 4 -5 0
-10 -5 -10 -11z"/>
<path d="M1149 6683 c-13 -16 -12 -17 4 -4 16 13 21 21 13 21 -2 0 -10 -8 -17
-17z"/>
<path d="M7371 6687 c-8 -10 -7 -14 2 -14 8 0 14 6 14 14 0 7 -1 13 -2 13 -2
0 -8 -6 -14 -13z"/>
<path d="M12817 6693 c-10 -9 -9 -23 1 -23 5 0 9 7 9 15 0 17 -1 18 -10 8z"/>
<path d="M1056 6682 c-3 -5 1 -9 9 -9 8 0 12 4 9 9 -3 4 -7 8 -9 8 -2 0 -6 -4
-9 -8z"/>
<path d="M2226 6682 c-2 -4 4 -8 14 -8 10 0 16 4 14 8 -3 4 -9 8 -14 8 -5 0
-11 -4 -14 -8z"/>
<path d="M2620 6686 c0 -2 8 -10 18 -17 15 -13 16 -12 3 4 -13 16 -21 21 -21
13z"/>
<path d="M2876 6673 c-6 -14 -5 -15 5 -6 7 7 10 15 7 18 -3 3 -9 -2 -12 -12z"/>
<path d="M4120 6680 c-9 -6 -10 -10 -3 -10 6 0 15 5 18 10 8 12 4 12 -15 0z"/>
<path d="M5566 6678 c3 -4 9 -8 15 -8 5 0 9 4 9 8 0 5 -7 9 -15 9 -8 0 -12 -4
-9 -9z"/>
<path d="M5713 6671 c0 -11 5 -18 9 -15 4 3 5 11 1 19 -7 21 -12 19 -10 -4z"/>
<path d="M6754 6674 c1 -8 4 -15 7 -16 2 -2 3 -1 2 1 -2 2 2 9 7 16 7 8 5 12
-4 12 -8 0 -13 -6 -12 -13z"/>
<path d="M7541 6676 c-9 -11 -9 -16 1 -22 7 -4 10 -4 6 1 -4 4 -3 14 3 22 6 7
9 13 6 13 -2 0 -10 -6 -16 -14z"/>
<path d="M9659 6673 c-13 -16 -12 -17 4 -4 16 13 21 21 13 21 -2 0 -10 -8 -17
-17z"/>
<path d="M9690 6680 c0 -5 5 -10 11 -10 5 0 7 5 4 10 -3 6 -8 10 -11 10 -2 0
-4 -4 -4 -10z"/>
<path d="M9720 6686 c0 -2 8 -10 18 -17 15 -13 16 -12 3 4 -13 16 -21 21 -21
13z"/>
<path d="M12893 6673 c0 -9 4 -10 14 -2 7 6 13 12 13 14 0 1 -6 2 -13 2 -8 0
-14 -6 -14 -14z"/>
<path d="M13005 6680 c-3 -6 1 -7 9 -4 18 7 21 14 7 14 -6 0 -13 -4 -16 -10z"/>
<path d="M2793 6665 c0 -8 4 -12 9 -9 5 3 6 10 3 15 -9 13 -12 11 -12 -6z"/>
<path d="M953 6653 c0 -9 4 -10 14 -2 7 6 13 12 13 14 0 1 -6 2 -13 2 -8 0
-14 -6 -14 -14z"/>
<path d="M2016 6662 c-2 -4 -1 -14 4 -22 7 -11 9 -9 7 8 -1 24 -3 26 -11 14z"/>
<path d="M2707 6659 c7 -7 15 -10 18 -7 3 3 -2 9 -12 12 -14 6 -15 5 -6 -5z"/>
<path d="M2825 6660 c-3 -6 1 -7 9 -4 18 7 21 14 7 14 -6 0 -13 -4 -16 -10z"/>
<path d="M3435 6659 c-3 -4 2 -6 10 -5 21 3 28 13 10 13 -9 0 -18 -4 -20 -8z"/>
<path d="M6716 6662 c-3 -5 1 -9 9 -9 8 0 12 4 9 9 -3 4 -7 8 -9 8 -2 0 -6 -4
-9 -8z"/>
<path d="M7490 6659 c0 -5 5 -7 10 -4 6 3 10 8 10 11 0 2 -4 4 -10 4 -5 0 -10
-5 -10 -11z"/>
<path d="M8876 6653 c-6 -14 -5 -15 5 -6 7 7 10 15 7 18 -3 3 -9 -2 -12 -12z"/>
<path d="M9834 6662 c4 -3 14 -7 22 -8 9 -1 13 0 10 4 -4 3 -14 7 -22 8 -9 1
-13 0 -10 -4z"/>
<path d="M10074 6662 c4 -3 14 -7 22 -8 9 -1 13 0 10 4 -4 3 -14 7 -22 8 -9 1
-13 0 -10 -4z"/>
<path d="M10186 6662 c-3 -5 1 -9 9 -9 8 0 15 4 15 9 0 4 -4 8 -9 8 -6 0 -12
-4 -15 -8z"/>
<path d="M11816 6662 c-3 -4 4 -9 15 -9 23 -2 25 3 4 10 -8 4 -16 3 -19 -1z"/>
<path d="M12755 6661 c-3 -5 -2 -12 3 -15 5 -3 9 1 9 9 0 17 -3 19 -12 6z"/>
<path d="M993 6645 c0 -8 4 -12 9 -9 5 3 6 10 3 15 -9 13 -12 11 -12 -6z"/>
<path d="M12056 6647 c3 -10 9 -15 12 -12 3 3 0 11 -7 18 -10 9 -11 8 -5 -6z"/>
<path d="M2313 6635 c0 -8 4 -12 9 -9 5 3 6 10 3 15 -9 13 -12 11 -12 -6z"/>
<path d="M2667 6639 c7 -7 15 -10 18 -7 3 3 -2 9 -12 12 -14 6 -15 5 -6 -5z"/>
<path d="M2866 6638 c3 -4 9 -8 15 -8 5 0 9 4 9 8 0 5 -7 9 -15 9 -8 0 -12 -4
-9 -9z"/>
<path d="M2916 6638 c3 -5 10 -6 15 -3 13 9 11 12 -6 12 -8 0 -12 -4 -9 -9z"/>
<path d="M3653 6635 c0 -8 4 -12 9 -9 4 3 8 9 8 15 0 5 -4 9 -8 9 -5 0 -9 -7
-9 -15z"/>
<path d="M6676 6638 c3 -5 10 -6 15 -3 13 9 11 12 -6 12 -8 0 -12 -4 -9 -9z"/>
<path d="M8937 6635 c-4 -8 -3 -16 1 -19 4 -3 9 4 9 15 2 23 -3 25 -10 4z"/>
<path d="M9666 6638 c3 -5 10 -6 15 -3 13 9 11 12 -6 12 -8 0 -12 -4 -9 -9z"/>
<path d="M9716 6638 c3 -5 10 -6 15 -3 13 9 11 12 -6 12 -8 0 -12 -4 -9 -9z"/>
<path d="M11953 6635 c0 -8 4 -12 9 -9 5 3 6 10 3 15 -9 13 -12 11 -12 -6z"/>
<path d="M12795 6640 c3 -5 8 -10 11 -10 2 0 4 5 4 10 0 6 -5 10 -11 10 -5 0
-7 -4 -4 -10z"/>
<path d="M9117 6633 c-10 -9 -9 -23 1 -23 5 0 9 7 9 15 0 17 -1 18 -10 8z"/>
<path d="M855 6621 c-3 -5 -2 -12 3 -15 5 -3 9 1 9 9 0 17 -3 19 -12 6z"/>
<path d="M955 6621 c-3 -5 -2 -12 3 -15 5 -3 9 1 9 9 0 17 -3 19 -12 6z"/>
<path d="M2156 6618 c3 -5 10 -6 15 -3 13 9 11 12 -6 12 -8 0 -12 -4 -9 -9z"/>
<path d="M2196 6621 c-3 -4 3 -16 13 -25 14 -13 18 -14 18 -2 0 8 -5 14 -11
13 -6 -1 -10 4 -8 11 2 14 -4 16 -12 3z"/>
<path d="M5453 6615 c0 -8 4 -12 9 -9 5 3 6 10 3 15 -9 13 -12 11 -12 -6z"/>
<path d="M5770 6620 c0 -5 5 -10 11 -10 5 0 7 5 4 10 -3 6 -8 10 -11 10 -2 0
-4 -4 -4 -10z"/>
<path d="M6976 6618 c3 -4 11 -5 19 -1 21 7 19 12 -4 10 -11 0 -18 -5 -15 -9z"/>
<path d="M9530 6619 c0 -5 5 -7 10 -4 6 3 10 8 10 11 0 2 -4 4 -10 4 -5 0 -10
-5 -10 -11z"/>
<path d="M9707 6619 c7 -7 15 -10 18 -7 3 3 -2 9 -12 12 -14 6 -15 5 -6 -5z"/>
<path d="M10073 6615 c0 -8 4 -12 9 -9 5 3 6 10 3 15 -9 13 -12 11 -12 -6z"/>
<path d="M10275 6623 c3 -3 0 -11 -5 -18 -7 -8 -5 -12 4 -12 14 0 16 22 3 32
-4 3 -5 2 -2 -2z"/>
<path d="M10307 6619 c7 -7 15 -10 18 -7 3 3 -2 9 -12 12 -14 6 -15 5 -6 -5z"/>
<path d="M12695 6620 c-3 -5 -1 -10 4 -10 6 0 11 5 11 10 0 6 -2 10 -4 10 -3
0 -8 -4 -11 -10z"/>
<path d="M12920 6620 c-9 -6 -10 -10 -3 -10 6 0 15 5 18 10 8 12 4 12 -15 0z"/>
<path d="M2035 6611 c-3 -5 -2 -12 3 -15 5 -3 9 1 9 9 0 17 -3 19 -12 6z"/>
<path d="M4990 6616 c0 -2 8 -10 18 -17 15 -13 16 -12 3 4 -13 16 -21 21 -21
13z"/>
<path d="M12793 6606 c0 -15 22 -15 34 0 4 5 4 6 -1 2 -5 -4 -14 -3 -21 2 -8
7 -12 5 -12 -4z"/>
<path d="M2266 6598 c3 -5 10 -6 15 -3 13 9 11 12 -6 12 -8 0 -12 -4 -9 -9z"/>
<path d="M2866 6602 c-2 -4 4 -8 14 -8 10 0 16 4 14 8 -3 4 -9 8 -14 8 -5 0
-11 -4 -14 -8z"/>
<path d="M3654 6598 c-4 -7 -4 -10 1 -6 4 4 15 2 24 -5 14 -11 14 -10 2 6 -16
20 -18 21 -27 5z"/>
<path d="M5576 6598 c3 -5 10 -6 15 -3 13 9 11 12 -6 12 -8 0 -12 -4 -9 -9z"/>
<path d="M6186 6602 c-3 -5 1 -9 9 -9 8 0 12 4 9 9 -3 4 -7 8 -9 8 -2 0 -6 -4
-9 -8z"/>
<path d="M6676 6602 c-3 -5 1 -9 9 -9 8 0 12 4 9 9 -3 4 -7 8 -9 8 -2 0 -6 -4
-9 -8z"/>
<path d="M7315 6601 c-3 -5 -2 -12 3 -15 5 -3 9 1 9 9 0 17 -3 19 -12 6z"/>
<path d="M9035 6600 c-3 -5 -1 -10 4 -10 6 0 11 5 11 10 0 6 -2 10 -4 10 -3 0
-8 -4 -11 -10z"/>
<path d="M9070 6595 c5 -7 6 -16 2 -21 -4 -5 -3 -5 2 -1 15 12 15 34 0 34 -9
0 -11 -4 -4 -12z"/>
<path d="M9266 6598 c3 -5 10 -6 15 -3 13 9 11 12 -6 12 -8 0 -12 -4 -9 -9z"/>
<path d="M10145 6600 c-3 -6 1 -7 9 -4 18 7 21 14 7 14 -6 0 -13 -4 -16 -10z"/>
<path d="M10340 6606 c0 -2 8 -10 18 -17 15 -13 16 -12 3 4 -13 16 -21 21 -21
13z"/>
<path d="M11913 6595 c0 -8 4 -12 9 -9 5 3 6 10 3 15 -9 13 -12 11 -12 -6z"/>
<path d="M11950 6595 c5 -7 6 -16 2 -21 -4 -5 -3 -5 2 -1 15 12 15 34 0 34 -9
0 -11 -4 -4 -12z"/>
<path d="M2933 6585 c0 -8 4 -12 9 -9 5 3 6 10 3 15 -9 13 -12 11 -12 -6z"/>
<path d="M2780 6586 c0 -2 8 -10 18 -17 15 -13 16 -12 3 4 -13 16 -21 21 -21
13z"/>
<path d="M5770 6579 c0 -5 5 -7 10 -4 6 3 10 8 10 11 0 2 -4 4 -10 4 -5 0 -10
-5 -10 -11z"/>
<path d="M7526 6578 c3 -5 10 -6 15 -3 13 9 11 12 -6 12 -8 0 -12 -4 -9 -9z"/>
<path d="M10099 6588 c-5 -18 -6 -38 -1 -34 7 8 12 36 6 36 -2 0 -4 -1 -5 -2z"/>
<path d="M13016 6582 c-3 -4 4 -9 15 -9 23 -2 25 3 4 10 -8 4 -16 3 -19 -1z"/>
<path d="M2876 6567 c3 -10 9 -15 12 -12 3 3 0 11 -7 18 -10 9 -11 8 -5 -6z"/>
<path d="M7375 6569 c-4 -6 -5 -12 -2 -15 2 -3 7 2 10 11 7 17 1 20 -8 4z"/>
<path d="M2039 6553 c-13 -16 -12 -17 4 -4 9 7 17 15 17 17 0 8 -8 3 -21 -13z"/>
<path d="M3587 6559 c7 -7 15 -10 18 -7 3 3 -2 9 -12 12 -14 6 -15 5 -6 -5z"/>
<path d="M6794 6548 c-19 -23 -19 -23 2 -5 11 9 24 14 29 10 4 -5 5 -2 1 5 -9
16 -10 16 -32 -10z"/>
<path d="M6975 6559 c-3 -4 2 -6 10 -5 21 3 28 13 10 13 -9 0 -18 -4 -20 -8z"/>
<path d="M9760 6560 c-9 -6 -10 -10 -3 -10 6 0 15 5 18 10 8 12 4 12 -15 0z"/>
<path d="M11906 6558 c3 -5 10 -6 15 -3 13 9 11 12 -6 12 -8 0 -12 -4 -9 -9z"/>
<path d="M12056 6553 c-6 -14 -5 -15 5 -6 7 7 10 15 7 18 -3 3 -9 -2 -12 -12z"/>
<path d="M12973 6551 c0 -11 5 -18 9 -15 4 3 5 11 1 19 -7 21 -12 19 -10 -4z"/>
<path d="M1080 6540 c-9 -6 -10 -10 -3 -10 6 0 15 5 18 10 8 12 4 12 -15 0z"/>
<path d="M1174 6542 c4 -3 14 -7 22 -8 9 -1 13 0 10 4 -4 3 -14 7 -22 8 -9 1
-13 0 -10 -4z"/>
<path d="M2160 6540 c-9 -6 -10 -10 -3 -10 6 0 15 5 18 10 8 12 4 12 -15 0z"/>
<path d="M2199 6548 c-6 -20 -6 -39 0 -42 4 -3 7 6 7 20 0 20 -4 32 -7 22z"/>
<path d="M2290 6540 c0 -5 5 -10 11 -10 5 0 7 5 4 10 -3 6 -8 10 -11 10 -2 0
-4 -4 -4 -10z"/>
<path d="M3495 6540 c3 -5 8 -10 11 -10 2 0 4 5 4 10 0 6 -5 10 -11 10 -5 0
-7 -4 -4 -10z"/>
<path d="M3640 6540 c-9 -6 -10 -10 -3 -10 6 0 15 5 18 10 8 12 4 12 -15 0z"/>
<path d="M3735 6540 c3 -5 8 -10 11 -10 2 0 4 5 4 10 0 6 -5 10 -11 10 -5 0
-7 -4 -4 -10z"/>
<path d="M3775 6541 c-3 -5 -2 -12 3 -15 5 -3 9 1 9 9 0 17 -3 19 -12 6z"/>
<path d="M5730 6539 c0 -5 5 -7 10 -4 6 3 10 8 10 11 0 2 -4 4 -10 4 -5 0 -10
-5 -10 -11z"/>
<path d="M5775 6540 c3 -5 8 -10 11 -10 2 0 4 5 4 10 0 6 -5 10 -11 10 -5 0
-7 -4 -4 -10z"/>
<path d="M6930 6539 c0 -5 5 -7 10 -4 6 3 10 8 10 11 0 2 -4 4 -10 4 -5 0 -10
-5 -10 -11z"/>
<path d="M7490 6539 c0 -5 5 -7 10 -4 6 3 10 8 10 11 0 2 -4 4 -10 4 -5 0 -10
-5 -10 -11z"/>
<path d="M8970 6540 c0 -5 5 -10 11 -10 5 0 7 5 4 10 -3 6 -8 10 -11 10 -2 0
-4 -4 -4 -10z"/>
<path d="M9235 6539 c-3 -4 2 -6 10 -5 21 3 28 13 10 13 -9 0 -18 -4 -20 -8z"/>
<path d="M9680 6540 c-9 -6 -10 -10 -3 -10 6 0 15 5 18 10 8 12 4 12 -15 0z"/>
<path d="M10273 6529 c-2 -23 3 -25 10 -4 4 8 3 16 -1 19 -4 3 -9 -4 -9 -15z"/>
<path d="M12120 6540 c-12 -7 -10 -9 7 -7 12 0 19 5 17 9 -6 10 -6 10 -24 -2z"/>
<path d="M5549 6523 c-13 -16 -12 -17 4 -4 9 7 17 15 17 17 0 8 -8 3 -21 -13z"/>
<path d="M9050 6536 c0 -2 8 -10 18 -17 15 -13 16 -12 3 4 -13 16 -21 21 -21
13z"/>
<path d="M9716 6527 c3 -10 9 -15 12 -12 3 3 0 11 -7 18 -10 9 -11 8 -5 -6z"/>
<path d="M10236 6527 c3 -10 9 -15 12 -12 3 3 0 11 -7 18 -10 9 -11 8 -5 -6z"/>
<path d="M11933 6525 c0 -8 4 -12 9 -9 5 3 6 10 3 15 -9 13 -12 11 -12 -6z"/>
<path d="M665 6520 c-3 -6 1 -7 9 -4 18 7 21 14 7 14 -6 0 -13 -4 -16 -10z"/>
<path d="M5505 6520 c-3 -6 1 -7 9 -4 18 7 21 14 7 14 -6 0 -13 -4 -16 -10z"/>
<path d="M5639 6513 c-13 -16 -12 -17 4 -4 9 7 17 15 17 17 0 8 -8 3 -21 -13z"/>
<path d="M5985 6520 c-3 -6 1 -7 9 -4 18 7 21 14 7 14 -6 0 -13 -4 -16 -10z"/>
<path d="M6833 6515 c0 -8 4 -12 9 -9 5 3 6 10 3 15 -9 13 -12 11 -12 -6z"/>
<path d="M7319 6513 c-13 -16 -12 -17 4 -4 9 7 17 15 17 17 0 8 -8 3 -21 -13z"/>
<path d="M7393 6515 c0 -8 4 -12 9 -9 5 3 6 10 3 15 -9 13 -12 11 -12 -6z"/>
<path d="M7947 6519 c7 -7 15 -10 18 -7 3 3 -2 9 -12 12 -14 6 -15 5 -6 -5z"/>
<path d="M9096 6518 c3 -5 10 -6 15 -3 13 9 11 12 -6 12 -8 0 -12 -4 -9 -9z"/>
<path d="M9139 6528 c-5 -18 -6 -38 -1 -34 7 8 12 36 6 36 -2 0 -4 -1 -5 -2z"/>
<path d="M9750 6519 c0 -5 5 -7 10 -4 6 3 10 8 10 11 0 2 -4 4 -10 4 -5 0 -10
-5 -10 -11z"/>
<path d="M13020 6526 c0 -2 8 -10 18 -17 15 -13 16 -12 3 4 -13 16 -21 21 -21
13z"/>
<path d="M9215 6511 c-3 -5 -2 -12 3 -15 5 -3 9 1 9 9 0 17 -3 19 -12 6z"/>
<path d="M9815 6509 c-4 -6 -5 -12 -2 -15 2 -3 7 2 10 11 7 17 1 20 -8 4z"/>
<path d="M836 6493 c-6 -14 -5 -15 5 -6 7 7 10 15 7 18 -3 3 -9 -2 -12 -12z"/>
<path d="M895 6500 c3 -5 8 -10 11 -10 2 0 4 5 4 10 0 6 -5 10 -11 10 -5 0 -7
-4 -4 -10z"/>
<path d="M2034 6502 c4 -3 14 -7 22 -8 9 -1 13 0 10 4 -4 3 -14 7 -22 8 -9 1
-13 0 -10 -4z"/>
<path d="M2095 6500 c-3 -5 -1 -10 4 -10 6 0 11 5 11 10 0 6 -2 10 -4 10 -3 0
-8 -4 -11 -10z"/>
<path d="M2286 6502 c-3 -5 1 -9 9 -9 8 0 12 4 9 9 -3 4 -7 8 -9 8 -2 0 -6 -4
-9 -8z"/>
<path d="M2874 6502 c4 -3 14 -7 22 -8 9 -1 13 0 10 4 -4 3 -14 7 -22 8 -9 1
-13 0 -10 -4z"/>
<path d="M3710 6505 c0 -7 30 -13 34 -7 3 4 -4 9 -15 9 -10 1 -19 0 -19 -2z"/>
<path d="M3776 6498 c3 -5 10 -6 15 -3 13 9 11 12 -6 12 -8 0 -12 -4 -9 -9z"/>
<path d="M6656 6502 c-2 -4 -1 -14 4 -22 7 -11 9 -9 7 8 -1 24 -3 26 -11 14z"/>
<path d="M6890 6500 c0 -5 5 -10 11 -10 5 0 7 5 4 10 -3 6 -8 10 -11 10 -2 0
-4 -4 -4 -10z"/>
<path d="M7213 6495 c0 -8 4 -12 9 -9 5 3 6 10 3 15 -9 13 -12 11 -12 -6z"/>
<path d="M8950 6500 c0 -5 5 -10 11 -10 5 0 7 5 4 10 -3 6 -8 10 -11 10 -2 0
-4 -4 -4 -10z"/>
<path d="M9534 6502 c4 -3 14 -7 22 -8 9 -1 13 0 10 4 -4 3 -14 7 -22 8 -9 1
-13 0 -10 -4z"/>
<path d="M12775 6500 c3 -5 8 -10 11 -10 2 0 4 5 4 10 0 6 -5 10 -11 10 -5 0
-7 -4 -4 -10z"/>
<path d="M1116 6487 c3 -10 9 -15 12 -12 3 3 0 11 -7 18 -10 9 -11 8 -5 -6z"/>
<path d="M3556 6487 c3 -10 9 -15 12 -12 3 3 0 11 -7 18 -10 9 -11 8 -5 -6z"/>
<path d="M9030 6496 c0 -2 8 -10 18 -17 15 -13 16 -12 3 4 -13 16 -21 21 -21
13z"/>
<path d="M9713 6485 c0 -8 4 -12 9 -9 5 3 6 10 3 15 -9 13 -12 11 -12 -6z"/>
<path d="M2654 6476 c1 -8 5 -18 8 -22 4 -3 5 1 4 10 -1 8 -5 18 -8 22 -4 3
-5 -1 -4 -10z"/>
<path d="M2955 6480 c3 -5 8 -10 11 -10 2 0 4 5 4 10 0 6 -5 10 -11 10 -5 0
-7 -4 -4 -10z"/>
<path d="M3265 6479 c-3 -4 2 -6 10 -5 21 3 28 13 10 13 -9 0 -18 -4 -20 -8z"/>
<path d="M5799 6473 c-13 -17 -13 -17 6 -3 11 8 22 16 24 17 2 2 0 3 -6 3 -6
0 -17 -8 -24 -17z"/>
<path d="M7406 6478 c3 -5 10 -6 15 -3 13 9 11 12 -6 12 -8 0 -12 -4 -9 -9z"/>
<path d="M7470 6481 c0 -6 4 -13 10 -16 6 -3 7 1 4 9 -7 18 -14 21 -14 7z"/>
<path d="M8985 6480 c-3 -6 1 -7 9 -4 18 7 21 14 7 14 -6 0 -13 -4 -16 -10z"/>
<path d="M10139 6488 c-5 -18 -6 -38 -1 -34 7 8 12 36 6 36 -2 0 -4 -1 -5 -2z"/>
<path d="M12116 6467 c3 -10 9 -15 12 -12 3 3 0 11 -7 18 -10 9 -11 8 -5 -6z"/>
<path d="M970 6459 c0 -5 5 -7 10 -4 6 3 10 8 10 11 0 2 -4 4 -10 4 -5 0 -10
-5 -10 -11z"/>
<path d="M1010 6459 c0 -5 5 -7 10 -4 6 3 10 8 10 11 0 2 -4 4 -10 4 -5 0 -10
-5 -10 -11z"/>
<path d="M2096 6462 c-3 -4 4 -9 15 -9 23 -2 25 3 4 10 -8 4 -16 3 -19 -1z"/>
<path d="M2859 6468 c-5 -18 -6 -38 -1 -34 7 8 12 36 6 36 -2 0 -4 -1 -5 -2z"/>
<path d="M3470 6465 c0 -7 30 -13 34 -7 3 4 -4 9 -15 9 -10 1 -19 0 -19 -2z"/>
<path d="M3714 6462 c4 -3 14 -7 22 -8 9 -1 13 0 10 4 -4 3 -14 7 -22 8 -9 1
-13 0 -10 -4z"/>
<path d="M5526 6458 c3 -5 10 -6 15 -3 13 9 11 12 -6 12 -8 0 -12 -4 -9 -9z"/>
<path d="M6879 6453 c-12 -16 -12 -17 2 -6 9 7 20 9 24 5 5 -4 5 -1 1 6 -9 16
-11 15 -27 -5z"/>
<path d="M9130 6459 c0 -5 5 -7 10 -4 6 3 10 8 10 11 0 2 -4 4 -10 4 -5 0 -10
-5 -10 -11z"/>
<path d="M9170 6459 c0 -5 5 -7 10 -4 6 3 10 8 10 11 0 2 -4 4 -10 4 -5 0 -10
-5 -10 -11z"/>
<path d="M10175 6460 c-3 -5 -1 -10 4 -10 6 0 11 5 11 10 0 6 -2 10 -4 10 -3
0 -8 -4 -11 -10z"/>
<path d="M12775 6460 c3 -5 8 -10 11 -10 2 0 4 5 4 10 0 6 -5 10 -11 10 -5 0
-7 -4 -4 -10z"/>
<path d="M9035 6449 c-4 -6 -5 -12 -2 -15 2 -3 7 2 10 11 7 17 1 20 -8 4z"/>
<path d="M1170 6439 c0 -5 5 -7 10 -4 6 3 10 8 10 11 0 2 -4 4 -10 4 -5 0 -10
-5 -10 -11z"/>
<path d="M1350 6439 c0 -5 5 -7 10 -4 6 3 10 8 10 11 0 2 -4 4 -10 4 -5 0 -10
-5 -10 -11z"/>
<path d="M6670 6446 c0 -2 7 -7 16 -10 8 -3 12 -2 9 4 -6 10 -25 14 -25 6z"/>
<path d="M6735 6440 c-3 -5 -1 -10 4 -10 6 0 11 5 11 10 0 6 -2 10 -4 10 -3 0
-8 -4 -11 -10z"/>
<path d="M12475 6441 c-3 -5 -2 -12 3 -15 5 -3 9 1 9 9 0 17 -3 19 -12 6z"/>
<path d="M12690 6439 c0 -5 5 -7 10 -4 6 3 10 8 10 11 0 2 -4 4 -10 4 -5 0
-10 -5 -10 -11z"/>
<path d="M2173 6415 c0 -8 4 -12 9 -9 5 3 6 10 3 15 -9 13 -12 11 -12 -6z"/>
<path d="M2236 6413 c-6 -14 -5 -15 5 -6 7 7 10 15 7 18 -3 3 -9 -2 -12 -12z"/>
<path d="M2799 6413 c-12 -16 -12 -17 2 -6 9 7 20 9 24 5 5 -4 5 -1 1 6 -9 16
-11 15 -27 -5z"/>
<path d="M6810 6425 c0 -7 30 -13 34 -7 3 4 -4 9 -15 9 -10 1 -19 0 -19 -2z"/>
<path d="M7310 6420 c0 -5 5 -10 11 -10 5 0 7 5 4 10 -3 6 -8 10 -11 10 -2 0
-4 -4 -4 -10z"/>
<path d="M7456 6418 c3 -5 10 -6 15 -3 13 9 11 12 -6 12 -8 0 -12 -4 -9 -9z"/>
<path d="M8299 6409 c-7 -13 -14 -26 -14 -29 0 -3 -6 -18 -12 -35 -6 -16 -48
-133 -93 -260 -45 -126 -95 -264 -110 -305 -16 -41 -52 -140 -80 -220 -28 -80
-61 -173 -75 -207 l-23 -63 36 -1 c21 -1 45 0 55 1 10 1 24 -3 30 -8 9 -8 12
-4 13 11 2 28 9 54 25 92 6 17 13 37 15 46 2 9 9 29 15 45 7 16 13 31 14 34
16 62 37 110 47 110 5 0 6 -5 2 -12 -5 -7 -3 -8 6 -3 8 5 83 9 169 9 168 1
183 -3 181 -49 0 -3 6 -18 14 -33 8 -15 16 -38 17 -52 2 -14 7 -27 10 -30 7
-6 44 -123 41 -132 -4 -17 34 -31 84 -30 30 0 57 2 58 4 3 3 -65 199 -85 243
-4 11 -27 72 -50 135 -66 185 -120 333 -129 355 -11 26 -42 111 -75 205 -79
221 -71 206 -86 179z m35 -346 c10 -32 18 -60 18 -63 0 -3 3 -9 8 -15 4 -5 14
-30 21 -55 15 -53 14 -51 21 -70 33 -89 48 -133 48 -141 0 -5 -62 -9 -140 -9
-93 0 -140 4 -140 11 0 9 78 243 97 289 3 8 7 20 9 25 1 6 8 24 15 40 7 17 12
33 11 38 -1 4 2 7 6 7 5 0 17 -26 26 -57z"/>
<path d="M9655 6420 c-3 -5 -1 -10 4 -10 6 0 11 5 11 10 0 6 -2 10 -4 10 -3 0
-8 -4 -11 -10z"/>
<path d="M9714 6422 c4 -3 14 -7 22 -8 9 -1 13 0 10 4 -4 3 -14 7 -22 8 -9 1
-13 0 -10 -4z"/>
<path d="M9790 6421 c0 -6 4 -13 10 -16 6 -3 7 1 4 9 -7 18 -14 21 -14 7z"/>
<path d="M10280 6417 c12 -16 12 -19 -1 -17 -26 4 -40 0 -34 -10 3 -5 1 -10
-5 -10 -7 0 -8 -6 0 -19 7 -14 7 -22 0 -26 -6 -4 -7 -11 -3 -18 5 -8 7 -300 2
-372 0 -5 1 -27 3 -48 3 -21 1 -40 -4 -43 -5 -3 -4 -12 3 -20 9 -11 9 -14 0
-14 -7 0 -9 -5 -6 -11 11 -16 12 -69 2 -69 -4 0 -5 -5 -2 -11 11 -16 12 -69 2
-69 -4 0 -5 -5 -1 -11 8 -14 11 -109 3 -109 -3 0 -6 -7 -6 -15 0 -8 4 -15 8
-15 5 0 4 -12 -1 -26 -6 -14 -7 -23 -2 -20 4 2 6 -36 5 -85 -2 -72 1 -89 12
-90 86 -4 122 2 110 21 -10 16 -12 70 -4 76 5 3 4 14 -1 25 -7 12 -7 19 -1 19
6 0 8 7 5 15 -4 8 0 23 7 32 8 9 9 14 3 10 -16 -10 -25 18 -11 33 9 10 9 11 0
6 -9 -5 -9 1 -3 24 5 17 5 30 0 30 -5 0 -5 14 0 32 6 19 6 36 0 43 -6 7 -5 16
3 25 6 7 7 10 1 7 -10 -6 -10 24 0 70 3 13 1 25 -3 27 -9 6 -8 37 3 54 4 7 2
12 -4 12 -8 0 -8 6 0 20 6 11 7 20 1 20 -5 0 -6 14 -1 34 4 19 5 38 1 44 -5 9
-6 82 -1 132 1 8 9 -1 19 -20 9 -19 52 -104 94 -187 42 -84 78 -156 78 -160 3
-19 39 -60 53 -60 23 0 39 22 96 132 79 152 121 229 131 240 5 5 9 17 9 26 0
9 6 22 14 28 21 18 21 10 18 -301 -2 -216 -5 -277 -15 -271 -9 5 -9 3 0 -8 7
-9 11 -55 11 -122 0 -75 4 -112 12 -120 10 -9 11 -9 5 1 -6 11 4 13 51 10 l59
-4 -3 54 c-3 44 -1 53 10 46 10 -6 11 -5 2 7 -8 10 -12 155 -12 507 -1 271 -3
496 -6 500 -4 6 -33 7 -93 3 -7 -1 -12 -5 -10 -9 3 -10 -185 -386 -195 -390
-5 -2 -8 -9 -8 -16 0 -7 -14 -39 -32 -71 l-32 -59 -135 276 c-116 234 -139
276 -156 273 -11 -1 -29 5 -40 14 -19 15 -19 15 -5 -2z"/>
<path d="M1106 6411 c-3 -5 -19 -7 -35 -6 -17 1 -31 -3 -33 -9 -2 -6 -3 -128
-3 -271 1 -175 -2 -265 -9 -274 -8 -11 -8 -13 2 -7 15 9 13 -55 -3 -66 -7 -5
-6 -8 0 -8 7 0 10 -82 10 -240 -1 -235 0 -240 20 -241 11 0 37 -1 58 -2 34 -2
37 0 37 26 0 16 4 26 9 22 5 -3 13 -1 16 5 4 6 1 9 -7 8 -10 -2 -13 38 -14
205 0 139 3 207 10 207 7 0 7 3 0 8 -7 5 -11 69 -11 195 0 104 3 185 7 180 13
-14 260 -455 260 -464 0 -5 4 -9 9 -9 5 0 12 -11 15 -25 4 -14 11 -25 16 -25
6 0 10 -8 10 -17 0 -10 9 -29 20 -43 11 -14 20 -29 20 -33 0 -5 9 -20 20 -34
11 -14 17 -29 14 -34 -3 -5 -1 -9 4 -9 13 0 54 -79 48 -95 -3 -10 0 -12 11 -8
11 4 14 2 9 -5 -4 -7 -3 -12 2 -12 5 0 12 -9 15 -20 4 -14 14 -20 34 -20 16 0
35 -6 42 -12 11 -11 12 -10 6 1 -6 11 -3 13 11 9 19 -5 19 8 17 526 -1 423 2
537 12 559 13 25 12 27 -8 28 -31 1 -100 1 -114 0 -8 -1 -11 -80 -10 -306 1
-168 -2 -305 -6 -305 -4 0 -4 -7 1 -17 6 -9 6 -29 2 -45 -5 -15 -5 -28 -1 -28
3 0 7 -9 7 -20 0 -11 -4 -20 -9 -20 -6 0 -5 -5 0 -12 5 -7 7 -23 4 -36 -5 -20
-10 -15 -41 40 -19 35 -34 66 -32 71 1 4 -2 7 -6 7 -4 0 -21 26 -37 58 -17 31
-33 59 -37 60 -5 2 -8 7 -8 11 0 4 -32 64 -71 132 -39 68 -87 153 -107 189
-19 36 -49 88 -64 115 -16 28 -34 62 -41 78 -11 25 -24 32 -56 28 -7 -2 -10 2
-6 8 3 6 4 11 1 11 -3 0 -7 -4 -10 -9z"/>
<path d="M5550 6416 c0 -2 8 -10 18 -17 15 -13 16 -12 3 4 -13 16 -21 21 -21
13z"/>
<path d="M3583 6397 c-4 -7 -43 -26 -65 -32 -5 -2 -11 -4 -15 -5 -5 -1 -11 -2
-15 -1 -5 0 -7 -2 -6 -6 2 -5 -15 -26 -37 -49 -63 -64 -113 -171 -133 -289 -8
-48 -9 -290 0 -361 3 -28 10 -59 15 -70 6 -10 13 -31 17 -46 11 -46 73 -143
116 -182 62 -56 121 -78 216 -82 128 -5 201 21 274 96 25 25 52 60 60 76 8 16
19 32 25 36 5 4 6 8 1 8 -5 0 -4 6 1 13 10 12 13 22 34 97 16 59 23 130 23
235 0 92 -4 132 -20 225 -6 39 -62 178 -78 198 -49 58 -112 112 -131 112 -8 0
-15 5 -15 11 0 5 -4 8 -9 4 -5 -3 -17 2 -25 11 -9 9 -16 11 -16 4 0 -7 -5 -8
-12 -3 -17 11 -198 11 -205 0z m200 -118 c84 -34 149 -144 173 -289 11 -69 12
-213 2 -232 -6 -12 -5 -18 2 -18 6 0 9 -4 6 -9 -3 -5 -8 -26 -12 -46 -10 -63
-13 -76 -30 -127 -8 -26 -20 -48 -25 -48 -5 0 -9 -6 -9 -13 0 -24 -55 -76
-101 -96 -55 -25 -141 -23 -196 4 -40 19 -106 95 -106 121 0 8 -4 14 -8 14 -6
0 -19 38 -25 75 -1 6 -3 15 -4 20 -1 6 -2 13 -1 17 0 4 -3 18 -8 31 -5 13 -5
30 -1 37 5 8 5 19 -1 26 -10 12 -6 216 5 269 15 68 40 133 65 170 32 46 89 94
120 100 13 2 25 6 27 8 9 8 96 -1 127 -14z"/>
<path d="M5660 6400 c-11 -7 -15 -1098 -5 -1109 3 -2 28 -4 56 -2 39 2 49 0
44 -10 -5 -7 -4 -10 2 -6 6 4 10 35 8 72 -1 39 1 62 7 59 6 -4 7 1 1 12 -7 16
-10 207 -3 224 1 3 1 10 0 15 -7 28 -4 485 3 482 5 -1 23 -29 41 -62 18 -33
79 -141 135 -240 56 -99 103 -184 104 -190 1 -5 10 -18 20 -29 9 -11 17 -25
17 -32 0 -7 4 -14 9 -16 5 -1 11 -10 13 -18 2 -8 5 -17 8 -20 17 -17 40 -72
34 -83 -4 -6 -3 -9 1 -4 12 10 68 -81 59 -95 -4 -6 -3 -8 3 -5 6 4 16 -7 23
-23 7 -17 15 -30 19 -31 55 -5 108 -2 103 6 -10 16 -10 95 1 95 5 0 4 6 -2 14
-8 10 -9 16 -1 21 6 3 7 12 3 18 -11 17 -10 216 1 210 5 -4 6 0 0 8 -11 18
-13 198 -2 221 4 9 5 19 0 22 -10 6 -8 444 2 474 8 24 12 23 -74 26 l-56 1 1
-287 c0 -162 -3 -284 -8 -281 -5 3 -5 -3 0 -13 7 -14 10 -202 4 -234 -1 -7
-102 172 -104 185 -1 6 -5 12 -8 15 -6 5 -66 107 -114 195 -16 28 -57 100 -92
162 -34 62 -63 117 -63 123 0 5 -4 10 -10 10 -5 0 -10 6 -10 14 0 7 -9 25 -21
40 -12 15 -22 37 -23 49 -1 20 -6 22 -58 23 -32 0 -62 -3 -68 -6z"/>
<path d="M7190 6400 c0 -5 5 -10 11 -10 5 0 7 5 4 10 -3 6 -8 10 -11 10 -2 0
-4 -4 -4 -10z"/>
<path d="M9470 6406 c0 -2 7 -7 16 -10 8 -3 12 -2 9 4 -6 10 -25 14 -25 6z"/>
<path d="M12583 6084 c0 -177 -3 -326 -7 -333 -4 -6 -4 -11 1 -11 4 0 8 -16 9
-35 0 -19 -3 -35 -8 -35 -5 0 -5 -7 0 -17 6 -9 6 -29 2 -45 -6 -18 -5 -28 2
-28 7 0 7 -4 0 -12 -5 -7 -6 -22 -2 -33 4 -11 4 -30 -1 -41 -4 -12 -5 -24 -2
-28 3 -3 5 -44 4 -91 -1 -63 1 -85 11 -86 7 0 48 0 91 0 53 0 77 -4 77 -12 0
-9 2 -9 8 0 5 8 53 11 152 12 80 0 189 0 243 0 l97 1 0 54 0 55 -40 -1 c-23 0
-43 2 -47 5 -3 3 -16 2 -30 -4 -13 -5 -22 -6 -19 -1 2 4 -12 6 -32 4 -21 -1
-50 -2 -67 -1 -16 0 -37 1 -45 1 -8 0 -28 0 -45 -1 -16 -1 -76 -2 -131 -2
-100 0 -102 1 -106 25 -3 14 -1 30 3 38 4 7 3 18 -3 25 -7 9 -7 13 1 13 7 0 9
4 6 10 -7 12 -10 289 -2 296 2 2 108 5 236 4 l231 0 0 59 0 59 -212 1 c-117 0
-224 0 -238 0 l-25 1 1 177 c1 97 5 178 10 180 5 2 133 4 284 5 l274 3 1 48
c1 26 -3 51 -9 54 -6 4 -160 7 -342 8 l-332 0 1 -321z"/>
<path d="M2835 6360 c-3 -5 -1 -10 4 -10 6 0 11 5 11 10 0 6 -2 10 -4 10 -3 0
-8 -4 -11 -10z"/>
<path d="M8720 6360 c-9 -6 -10 -10 -3 -10 6 0 15 5 18 10 8 12 4 12 -15 0z"/>
<path d="M1825 5720 c-3 -6 1 -7 9 -4 18 7 21 14 7 14 -6 0 -13 -4 -16 -10z"/>
<path d="M5796 5447 c3 -10 9 -15 12 -12 3 3 0 11 -7 18 -10 9 -11 8 -5 -6z"/>
<path d="M1394 5406 c1 -8 5 -18 8 -22 4 -3 5 1 4 10 -1 8 -5 18 -8 22 -4 3
-5 -1 -4 -10z"/>
<path d="M5916 5393 c-6 -14 -5 -15 5 -6 7 7 10 15 7 18 -3 3 -9 -2 -12 -12z"/>
<path d="M4030 5359 c0 -5 5 -7 10 -4 6 3 10 8 10 11 0 2 -4 4 -10 4 -5 0 -10
-5 -10 -11z"/>
<path d="M5826 5362 c-3 -5 1 -9 9 -9 8 0 12 4 9 9 -3 4 -7 8 -9 8 -2 0 -6 -4
-9 -8z"/>
<path d="M10710 5366 c0 -2 7 -7 16 -10 8 -3 12 -2 9 4 -6 10 -25 14 -25 6z"/>
<path d="M10590 5280 c0 -5 5 -10 11 -10 5 0 7 5 4 10 -3 6 -8 10 -11 10 -2 0
-4 -4 -4 -10z"/>
<path d="M1597 5253 c-10 -9 -9 -23 1 -23 5 0 9 7 9 15 0 17 -1 18 -10 8z"/>
<path d="M4030 5200 c0 -5 5 -10 11 -10 5 0 7 5 4 10 -3 6 -8 10 -11 10 -2 0
-4 -4 -4 -10z"/>
<path d="M6195 5200 c-3 -5 -1 -10 4 -10 6 0 11 5 11 10 0 6 -2 10 -4 10 -3 0
-8 -4 -11 -10z"/>
<path d="M995 5169 c-4 -6 -5 -12 -2 -15 2 -3 7 2 10 11 7 17 1 20 -8 4z"/>
<path d="M1593 5153 c0 -9 4 -10 14 -2 7 6 13 12 13 14 0 1 -6 2 -13 2 -8 0
-14 -6 -14 -14z"/>
<path d="M6260 5120 c8 -5 20 -10 25 -10 6 0 3 5 -5 10 -8 5 -19 10 -25 10 -5
0 -3 -5 5 -10z"/>
<path d="M1710 5082 c0 -5 7 -9 15 -9 8 0 12 4 9 9 -3 4 -9 8 -15 8 -5 0 -9
-4 -9 -8z"/>
<path d="M3950 5039 c0 -5 5 -7 10 -4 6 3 10 8 10 11 0 2 -4 4 -10 4 -5 0 -10
-5 -10 -11z"/>
<path d="M3994 5009 c-3 -6 -2 -15 3 -20 5 -5 9 -1 9 11 0 23 -2 24 -12 9z"/>
</g>
</svg>
