<svg>
<symbol id="portfolio" width="172" height="44" viewBox="0 0 172 44" fill="none" xmlns="http://www.w3.org/2000/svg">
    <g filter="url(#filter0_d_17_19)">
    <path d="M11.0594 2C14.446 2 16.9527 2.56 18.5794 3.68C20.2327 4.77333 21.0594 6.72 21.0594 9.52C21.0594 12.32 20.246 14.5467 18.6194 16.2C16.9927 17.8267 14.366 18.64 10.7394 18.64H7.37938L7.25938 27.32L10.3794 27.6C10.3794 28.3467 10.1527 29.1467 9.69938 30H0.699375L0.579375 28.64C1.69938 28.2133 2.84604 27.8933 4.01938 27.68C3.85938 17.28 3.72604 9.54667 3.61938 4.48C2.89938 4.34667 1.72604 4.02667 0.0993751 3.52L0.299375 2H11.0594ZM10.3394 16.04C12.6327 16.0133 14.3794 15.44 15.5794 14.32C16.7794 13.1733 17.3794 11.6667 17.3794 9.8C17.3794 7.93333 16.7927 6.64 15.6194 5.92C14.446 5.17333 12.566 4.8 9.97938 4.8C9.49938 4.8 8.68604 4.81333 7.53938 4.84C7.53938 4.86667 7.49938 8.61333 7.41938 16.08L10.3394 16.04ZM32.5472 28.08C34.7872 28.08 36.2939 27.3867 37.0672 26C37.8672 24.5867 38.2672 22.5867 38.2672 20C38.2672 15.8933 37.3605 13.32 35.5472 12.28C34.8005 11.8533 33.7472 11.64 32.3872 11.64C31.0539 11.64 29.7872 11.92 28.5872 12.48C27.5205 14.5333 26.9872 16.92 26.9872 19.64C26.9872 22.2533 27.3339 24.2667 28.0272 25.68C28.8272 27.28 30.3339 28.08 32.5472 28.08ZM23.3072 20C23.3072 16.6133 24.0805 13.9733 25.6272 12.08C27.1739 10.16 29.5605 9.2 32.7872 9.2C36.0139 9.2 38.3472 10.08 39.7872 11.84C41.2272 13.5733 41.9472 16.1467 41.9472 19.56C41.9472 22.9733 41.1739 25.6533 39.6272 27.6C38.1072 29.5467 35.7872 30.52 32.6672 30.52C29.5472 30.52 27.2005 29.6133 25.6272 27.8C24.0805 25.9867 23.3072 23.3867 23.3072 20ZM57.1106 12.56C56.9773 12.4267 56.684 12.36 56.2306 12.36C55.7773 12.36 55.0973 12.52 54.1906 12.84C53.3106 13.16 52.5106 13.5333 51.7906 13.96C51.6306 19.88 51.524 24.32 51.4706 27.28L54.8306 27.6C54.8306 28.3467 54.604 29.1467 54.1506 30H44.9506L44.8306 28.6C46.0573 28.1733 47.2573 27.8533 48.4306 27.64C48.2706 20.8667 48.1373 15.8533 48.0306 12.6C46.564 12.52 45.3906 12.36 44.5106 12.12L44.6706 10.04C46.084 9.64 48.1773 9.44 50.9506 9.44C51.3773 10.1067 51.644 10.96 51.7506 12C54.8173 10.1333 56.644 9.2 57.2306 9.2C57.8173 9.2 58.4973 9.32 59.2706 9.56C60.044 9.77333 60.6173 10.0133 60.9906 10.28C60.9906 12.9467 60.7373 15.12 60.2306 16.8C59.8573 16.9067 59.4173 16.96 58.9106 16.96C58.4306 16.96 58.0973 16.9467 57.9106 16.92L57.1106 12.56ZM65.7594 27.52L65.4394 12.44H62.3594L62.2394 11.04C62.506 10.8533 63.2794 10.5067 64.5594 10L67.8394 4.88C68.3727 4.93333 68.786 5.06667 69.0794 5.28L69.0394 9.68C71.0394 9.68 72.6794 9.81333 73.9594 10.08C73.9594 10.8 73.7327 11.5867 73.2794 12.44H68.9594C68.906 15.64 68.8527 20.4933 68.7994 27C70.2927 27.08 71.786 27.3467 73.2794 27.8L73.2394 29.2C72.866 29.44 71.906 29.72 70.3594 30.04C68.8394 30.36 67.586 30.52 66.5994 30.52C66.466 30.3067 66.2927 29.8533 66.0794 29.16C65.866 28.44 65.7594 27.8933 65.7594 27.52ZM90.0656 6.52L89.4256 6.48H89.2656L88.0256 2.56C87.439 2.45333 86.919 2.4 86.4656 2.4C85.159 2.4 84.239 2.90667 83.7056 3.92C83.199 4.93333 82.9456 6.70667 82.9456 9.24V9.72H83.5456C85.3856 9.72 86.799 9.82667 87.7856 10.04C87.8123 10.04 87.8656 10.0533 87.9456 10.08C87.919 10.8533 87.6923 11.64 87.2656 12.44H82.7056V27.28H83.3056C84.3456 27.28 85.2656 27.3333 86.0656 27.44C86.8656 27.5467 87.2923 27.6267 87.3456 27.68C87.3456 28.3733 87.119 29.1467 86.6656 30H76.1856L76.0656 28.6C77.2923 28.1733 78.4123 27.8533 79.4256 27.64V12.44H76.3456L76.2256 11.04C77.1856 10.6667 78.2523 10.3733 79.4256 10.16V8.52C79.4256 5.50667 79.9856 3.30667 81.1056 1.92C81.559 1.38666 82.199 0.946665 83.0256 0.599999C83.8523 0.226666 84.8123 0.0399995 85.9056 0.0399995C88.039 0.0399995 90.0656 0.506666 91.9856 1.44C91.9856 3.09333 91.8256 4.74667 91.5056 6.4C91.2123 6.48 90.7323 6.52 90.0656 6.52ZM100.672 28.08C102.912 28.08 104.419 27.3867 105.192 26C105.992 24.5867 106.392 22.5867 106.392 20C106.392 15.8933 105.486 13.32 103.672 12.28C102.926 11.8533 101.872 11.64 100.512 11.64C99.1789 11.64 97.9122 11.92 96.7122 12.48C95.6455 14.5333 95.1122 16.92 95.1122 19.64C95.1122 22.2533 95.4589 24.2667 96.1522 25.68C96.9522 27.28 98.4589 28.08 100.672 28.08ZM91.4322 20C91.4322 16.6133 92.2055 13.9733 93.7522 12.08C95.2989 10.16 97.6855 9.2 100.912 9.2C104.139 9.2 106.472 10.08 107.912 11.84C109.352 13.5733 110.072 16.1467 110.072 19.56C110.072 22.9733 109.299 25.6533 107.752 27.6C106.232 29.5467 103.912 30.52 100.792 30.52C97.6722 30.52 95.3255 29.6133 93.7522 27.8C92.2055 25.9867 91.4322 23.3867 91.4322 20ZM118.356 0.279999C119.182 0.279999 119.769 0.306665 120.116 0.359998C120.116 1.29333 119.942 2.36 119.596 3.56C119.356 19.2933 119.236 27.2 119.236 27.28L122.596 27.6C122.596 28.3467 122.369 29.1467 121.916 30H112.716L112.596 28.6C113.822 28.1733 115.022 27.8533 116.196 27.64L115.796 3.44C114.329 3.36 113.156 3.2 112.276 2.96L112.436 0.879998C113.796 0.479999 115.769 0.279999 118.356 0.279999ZM131.953 5.88C131.259 6.04 130.579 6.12 129.913 6.12C129.273 6.12 128.633 6.08 127.993 6C127.833 5.25333 127.753 4.50667 127.753 3.76C127.753 2.98666 127.779 2.41333 127.833 2.04C128.419 1.90666 129.033 1.84 129.673 1.84C130.339 1.84 131.046 1.86666 131.793 1.92C131.953 2.61333 132.033 3.29333 132.033 3.96C132.033 4.6 132.006 5.24 131.953 5.88ZM124.673 10.08C126.939 9.68 128.699 9.48 129.953 9.48C131.206 9.48 132.006 9.50667 132.353 9.56C132.353 10.2 132.273 10.9067 132.113 11.68C131.953 12.4533 131.859 12.8267 131.833 12.8L131.473 27.28L134.833 27.6C134.833 28.3467 134.606 29.1467 134.153 30H124.953L124.833 28.6C126.059 28.1733 127.259 27.8533 128.433 27.64C128.273 20.9733 128.139 15.9733 128.033 12.64C126.486 12.64 125.313 12.48 124.513 12.16L124.673 10.08ZM146.297 28.08C148.537 28.08 150.044 27.3867 150.817 26C151.617 24.5867 152.017 22.5867 152.017 20C152.017 15.8933 151.111 13.32 149.297 12.28C148.551 11.8533 147.497 11.64 146.137 11.64C144.804 11.64 143.537 11.92 142.337 12.48C141.271 14.5333 140.737 16.92 140.737 19.64C140.737 22.2533 141.084 24.2667 141.777 25.68C142.577 27.28 144.084 28.08 146.297 28.08ZM137.057 20C137.057 16.6133 137.831 13.9733 139.377 12.08C140.924 10.16 143.311 9.2 146.537 9.2C149.764 9.2 152.097 10.08 153.537 11.84C154.977 13.5733 155.697 16.1467 155.697 19.56C155.697 22.9733 154.924 25.6533 153.377 27.6C151.857 29.5467 149.537 30.52 146.417 30.52C143.297 30.52 140.951 29.6133 139.377 27.8C137.831 25.9867 137.057 23.3867 137.057 20Z" fill="#A82222"/>
    </g>
    <defs>
    <filter id="filter0_d_17_19" x="0.0993729" y="0.0400009" width="171.498" height="43.38" filterUnits="userSpaceOnUse" color-interpolation-filters="sRGB">
    <feFlood flood-opacity="0" result="BackgroundImageFix"/>
    <feColorMatrix in="SourceAlpha" type="matrix" values="0 0 0 0 0 0 0 0 0 0 0 0 0 0 0 0 0 0 127 0" result="hardAlpha"/>
    <feOffset dx="10" dy="7"/>
    <feGaussianBlur stdDeviation="2.95"/>
    <feComposite in2="hardAlpha" operator="out"/>
    <feColorMatrix type="matrix" values="0 0 0 0 0 0 0 0 0 0 0 0 0 0 0 0 0 0 0.25 0"/>
    <feBlend mode="normal" in2="BackgroundImageFix" result="effect1_dropShadow_17_19"/>
    <feBlend mode="normal" in="SourceGraphic" in2="effect1_dropShadow_17_19" result="shape"/>
    </filter>
    </defs>
</symbol>

</svg>